<svg width="78" height="78" viewBox="0 0 78 78" fill="none" xmlns="http://www.w3.org/2000/svg">
<path d="M75.5625 64.5938H66.4219C67.5528 64.5925 68.6371 64.1427 69.4367 63.343C70.2364 62.5433 70.6862 61.4591 70.6875 60.3281V59.1094C70.6862 57.9784 70.2364 56.8942 69.4367 56.0945C68.6371 55.2948 67.5528 54.845 66.4219 54.8438H63.4588L60.1407 39.5698C59.9714 37.7527 59.1317 36.0638 57.7853 34.832C56.4388 33.6002 54.6821 32.9137 52.8572 32.9062H46.3125V31.6875C46.3121 31.5446 46.2869 31.4028 46.2379 31.2686C47.416 30.0307 48.2226 28.4866 48.5657 26.8125H48.75C49.7193 26.8112 50.6485 26.4256 51.3339 25.7402C52.0193 25.0548 52.405 24.1256 52.4062 23.1562V15.2344C52.4025 11.8416 51.0531 8.58879 48.654 6.18972C46.255 3.79064 43.0022 2.44121 39.6094 2.4375H38.3906C34.9978 2.44121 31.745 3.79064 29.346 6.18972C26.9469 8.58879 25.5975 11.8416 25.5938 15.2344V23.1562C25.595 24.1256 25.9807 25.0548 26.6661 25.7402C27.3515 26.4256 28.2807 26.8112 29.25 26.8125H29.4343C29.7774 28.4866 30.584 30.0307 31.7621 31.2686C31.7131 31.4028 31.6879 31.5446 31.6875 31.6875V32.9062H25.1428C23.3179 32.9137 21.5612 33.6002 20.2147 34.832C18.8683 36.0638 18.0286 37.7527 17.8593 39.5698L15.0714 52.4062H14.0156C13.6742 52.406 13.334 52.4474 13.0025 52.5296L9.62203 45.7671C9.47738 45.4778 9.22374 45.2578 8.9169 45.1556C8.61006 45.0533 8.27515 45.0771 7.98586 45.2217C7.69657 45.3664 7.47658 45.62 7.3743 45.9269C7.27202 46.2337 7.29582 46.5686 7.44047 46.8579L10.8956 53.7667C10.1592 54.5548 9.74967 55.5932 9.75 56.6719V60.3281C9.75125 61.4591 10.2011 62.5433 11.0008 63.343C11.8004 64.1427 12.8847 64.5925 14.0156 64.5938H2.4375C2.11427 64.5938 1.80427 64.7222 1.57571 64.9507C1.34715 65.1793 1.21875 65.4893 1.21875 65.8125V70.6875C1.21875 71.0107 1.34715 71.3207 1.57571 71.5493C1.80427 71.7778 2.11427 71.9062 2.4375 71.9062H3.65625V74.3438C3.65625 74.667 3.78465 74.977 4.01321 75.2055C4.24177 75.4341 4.55177 75.5625 4.875 75.5625H73.125C73.4482 75.5625 73.7582 75.4341 73.9868 75.2055C74.2153 74.977 74.3438 74.667 74.3438 74.3438V71.9062H75.5625C75.8857 71.9062 76.1957 71.7778 76.4243 71.5493C76.6528 71.3207 76.7812 71.0107 76.7812 70.6875V65.8125C76.7812 65.4893 76.6528 65.1793 76.4243 64.9507C76.1957 64.7222 75.8857 64.5938 75.5625 64.5938ZM62.7656 57.2812H66.4219C66.9066 57.2817 67.3714 57.4744 67.7141 57.8171C68.0569 58.1599 68.2496 58.6246 68.25 59.1094V60.3281C68.2496 60.8129 68.0569 61.2776 67.7141 61.6204C67.3714 61.9631 66.9066 62.1558 66.4219 62.1562H62.7656C62.2809 62.1558 61.8161 61.9631 61.4734 61.6204C61.1306 61.2776 60.9379 60.8129 60.9375 60.3281V59.1094C60.9379 58.6246 61.1306 58.1599 61.4734 57.8171C61.8161 57.4744 62.2809 57.2817 62.7656 57.2812ZM49.9688 23.1562C49.9683 23.4793 49.8398 23.7891 49.6113 24.0175C49.3828 24.246 49.0731 24.3746 48.75 24.375V19.5H49.9688V23.1562ZM29.25 24.375C28.9269 24.3746 28.6172 24.246 28.3887 24.0175C28.1602 23.7891 28.0317 23.4793 28.0312 23.1562V19.5H29.25V24.375ZM28.0312 17.0625V15.2344C28.0341 12.4878 29.1265 9.85449 31.0686 7.91235C33.0107 5.97021 35.644 4.87786 38.3906 4.875H39.6094C42.356 4.87786 44.9893 5.97021 46.9314 7.91235C48.8735 9.85449 49.9659 12.4878 49.9688 15.2344V17.0625H48.75V16.4531C48.75 16.22 48.7409 15.987 48.7241 15.76C48.7095 15.5693 48.6503 15.3848 48.5512 15.2213C48.4521 15.0578 48.3159 14.9199 48.1537 14.8188C47.9914 14.7176 47.8077 14.6561 47.6172 14.6391C47.4268 14.6221 47.235 14.6502 47.0575 14.721C41.2501 17.0336 30.5754 17.0625 30.4688 17.0625H28.0312ZM31.6875 24.9844V19.4817C34.4449 19.4132 41.2638 19.0887 46.3125 17.5576V24.9844C46.3104 26.7615 45.6035 28.4653 44.3469 29.7219C43.0903 30.9785 41.3865 31.6854 39.6094 31.6875H38.3906C36.6135 31.6854 34.9097 30.9785 33.6531 29.7219C32.3965 28.4653 31.6896 26.7615 31.6875 24.9844ZM43.875 33.0647V34.125C43.875 36.1405 41.6889 37.7812 39 37.7812C36.3111 37.7812 34.125 36.1405 34.125 34.125V33.0647C35.4385 33.7624 36.9033 34.1265 38.3906 34.125H39.6094C41.0967 34.1265 42.5615 33.7624 43.875 33.0647ZM20.2587 40.01C20.2706 39.9553 20.2788 39.8998 20.283 39.844C20.3822 38.6215 20.9366 37.4807 21.8365 36.6474C22.7364 35.814 23.9163 35.3488 25.1428 35.3438H31.8353C32.5147 38.1225 35.4687 40.2188 39 40.2188C42.5313 40.2188 45.4853 38.1225 46.1647 35.3438H52.8572C54.0837 35.3488 55.2636 35.814 56.1635 36.6474C57.0634 37.4807 57.6178 38.6215 57.7169 39.844C57.7212 39.8998 57.7294 39.9553 57.7413 40.01L61.0441 55.2079C60.2879 55.5421 59.645 56.0887 59.1934 56.7813C58.7418 57.4738 58.5009 58.2826 58.5 59.1094V60.3281C58.5013 61.4591 58.9511 62.5433 59.7508 63.343C60.5504 64.1427 61.6347 64.5925 62.7656 64.5938H57.2812V45.7031C57.28 44.5722 56.8302 43.4879 56.0305 42.6883C55.2308 41.8886 54.1466 41.4388 53.0156 41.4375H24.9844C23.8534 41.4388 22.7692 41.8886 21.9695 42.6883C21.1698 43.4879 20.72 44.5722 20.7188 45.7031V64.5938H15.2344C16.3653 64.5925 17.4496 64.1427 18.2492 63.343C19.0489 62.5433 19.4988 61.4591 19.5 60.3281V56.6719C19.4998 55.9363 19.3093 55.2134 18.9471 54.5732C18.5848 53.9331 18.0631 53.3976 17.4327 53.0187L20.2587 40.01ZM54.8438 45.7031V64.5938H23.1562V45.7031C23.1567 45.2184 23.3494 44.7536 23.6921 44.4109C24.0349 44.0681 24.4996 43.8754 24.9844 43.875H53.0156C53.5004 43.8754 53.9651 44.0681 54.3079 44.4109C54.6506 44.7536 54.8433 45.2184 54.8438 45.7031ZM12.1875 60.3281V56.6719C12.1879 56.1871 12.3806 55.7224 12.7234 55.3796C13.0661 55.0369 13.5309 54.8442 14.0156 54.8438H15.2344C15.7191 54.8442 16.1839 55.0369 16.5266 55.3796C16.8694 55.7224 17.0621 56.1871 17.0625 56.6719V60.3281C17.0621 60.8129 16.8694 61.2776 16.5266 61.6204C16.1839 61.9631 15.7191 62.1558 15.2344 62.1562H14.0156C13.5309 62.1558 13.0661 61.9631 12.7234 61.6204C12.3806 61.2776 12.1879 60.8129 12.1875 60.3281ZM71.9062 73.125H6.09375V71.9062H71.9062V73.125ZM74.3438 69.4688H3.65625V67.0312H74.3438V69.4688Z" fill="black"/>
<path d="M39 51.1875C38.0358 51.1875 37.0933 51.4734 36.2916 52.0091C35.4899 52.5448 34.8651 53.3061 34.4961 54.1969C34.1271 55.0877 34.0306 56.0679 34.2187 57.0136C34.4068 57.9592 34.8711 58.8279 35.5529 59.5096C36.2346 60.1914 37.1033 60.6557 38.0489 60.8438C38.9946 61.0319 39.9748 60.9354 40.8656 60.5664C41.7564 60.1974 42.5177 59.5726 43.0534 58.7709C43.5891 57.9692 43.875 57.0267 43.875 56.0625C43.8736 54.77 43.3595 53.5309 42.4455 52.617C41.5316 51.703 40.2925 51.189 39 51.1875ZM39 58.5C38.5179 58.5 38.0466 58.357 37.6458 58.0892C37.245 57.8214 36.9325 57.4407 36.748 56.9953C36.5636 56.5499 36.5153 56.0598 36.6093 55.587C36.7034 55.1141 36.9355 54.6798 37.2764 54.3389C37.6173 53.998 38.0516 53.7659 38.5245 53.6718C38.9973 53.5778 39.4874 53.6261 39.9328 53.8105C40.3782 53.995 40.7589 54.3075 41.0267 54.7083C41.2945 55.1091 41.4375 55.5804 41.4375 56.0625C41.4367 56.7087 41.1797 57.3283 40.7227 57.7852C40.2658 58.2422 39.6462 58.4992 39 58.5Z" fill="#F3580B"/>
<path d="M35.3438 23.1562C36.0168 23.1562 36.5625 22.6106 36.5625 21.9375C36.5625 21.2644 36.0168 20.7188 35.3438 20.7188C34.6707 20.7188 34.125 21.2644 34.125 21.9375C34.125 22.6106 34.6707 23.1562 35.3438 23.1562Z" fill="black"/>
<path d="M42.6562 23.1562C43.3293 23.1562 43.875 22.6106 43.875 21.9375C43.875 21.2644 43.3293 20.7188 42.6562 20.7188C41.9832 20.7188 41.4375 21.2644 41.4375 21.9375C41.4375 22.6106 41.9832 23.1562 42.6562 23.1562Z" fill="black"/>
<path d="M37.7812 29.25H40.2188C40.542 29.25 40.852 29.1216 41.0805 28.893C41.3091 28.6645 41.4375 28.3545 41.4375 28.0312C41.4375 27.708 41.3091 27.398 41.0805 27.1695C40.852 26.9409 40.542 26.8125 40.2188 26.8125H37.7812C37.458 26.8125 37.148 26.9409 36.9195 27.1695C36.6909 27.398 36.5625 27.708 36.5625 28.0312C36.5625 28.3545 36.6909 28.6645 36.9195 28.893C37.148 29.1216 37.458 29.25 37.7812 29.25Z" fill="black"/>
</svg>
