<svg width="84" height="84" viewBox="0 0 84 84" fill="none" xmlns="http://www.w3.org/2000/svg">
<path d="M49.2351 25.6714C49.2385 24.3491 48.8494 23.0555 48.1171 21.9544C47.3849 20.8533 46.3424 19.9943 45.1217 19.486C43.901 18.9776 42.5569 18.843 41.2595 19.0989C39.9622 19.3549 38.77 19.99 37.8339 20.9239C36.8977 21.8578 36.2597 23.0485 36.0005 24.3452C35.7414 25.6418 35.8728 26.9863 36.3782 28.2082C36.8835 29.4302 37.74 30.4747 38.8393 31.2097C39.9386 31.9446 41.2312 32.3368 42.5535 32.3367C44.3228 32.3369 46.02 31.6352 47.2726 30.3856C48.5252 29.1361 49.231 27.4407 49.2351 25.6714ZM42.5535 30.368C41.6254 30.3647 40.719 30.0866 39.9488 29.5685C39.1787 29.0505 38.5793 28.3159 38.2263 27.4575C37.8734 26.5991 37.7827 25.6553 37.9657 24.7453C38.1488 23.8354 38.5974 23.0001 39.2548 22.3449C39.9122 21.6898 40.7491 21.2441 41.6596 21.0642C42.5702 20.8843 43.5136 20.9782 44.3709 21.3341C45.2281 21.69 45.9606 22.292 46.4759 23.0639C46.9913 23.8359 47.2664 24.7432 47.2664 25.6714C47.2628 26.9187 46.7646 28.1137 45.8811 28.9941C44.9976 29.8746 43.8009 30.3687 42.5535 30.368Z" fill="#F3580B"/>
<path d="M20.8299 42.1804C19.9178 42.1826 19.0268 42.455 18.2695 42.9632C17.5122 43.4715 16.9226 44.1929 16.575 45.0361C16.2275 45.8794 16.1377 46.8067 16.3169 47.701C16.4962 48.5952 16.9365 49.4163 17.5822 50.0605C18.2278 50.7046 19.05 51.143 19.9447 51.3201C20.8394 51.4972 21.7665 51.4052 22.6089 51.0557C23.4513 50.7061 24.1713 50.1147 24.6777 49.3562C25.1842 48.5977 25.4545 47.7061 25.4545 46.794C25.4516 45.5694 24.9632 44.3959 24.0962 43.5309C23.2292 42.666 22.0545 42.1803 20.8299 42.1804ZM20.8299 49.439C20.3072 49.4369 19.7969 49.2799 19.3633 48.988C18.9298 48.6961 18.5925 48.2822 18.3939 47.7987C18.1954 47.3152 18.1446 46.7838 18.2478 46.2714C18.3511 45.759 18.6039 45.2887 18.9742 44.9199C19.3446 44.5511 19.8159 44.3002 20.3287 44.1991C20.8414 44.0979 21.3727 44.1509 21.8554 44.3514C22.3381 44.5519 22.7505 44.8909 23.0407 45.3257C23.3309 45.7604 23.4857 46.2713 23.4857 46.794C23.4836 47.4968 23.2028 48.1701 22.7049 48.6661C22.207 49.1621 21.5327 49.4403 20.8299 49.4397V49.439Z" fill="black"/>
<path d="M50.0458 50.7579C49.2642 50.7597 48.5006 50.9931 47.8516 51.4286C47.2025 51.8641 46.6971 52.4822 46.3992 53.2049C46.1013 53.9275 46.0243 54.7222 46.1778 55.4886C46.3314 56.255 46.7087 56.9587 47.262 57.5108C47.8153 58.0629 48.5198 58.4386 49.2866 58.5904C50.0533 58.7423 50.8478 58.6634 51.5698 58.3639C52.2918 58.0644 52.9088 57.5576 53.3428 56.9076C53.7769 56.2576 54.0086 55.4935 54.0086 54.7118C54.0062 53.6624 53.5877 52.6567 52.8448 51.9155C52.1019 51.1742 51.0953 50.7579 50.0458 50.7579ZM50.0458 56.697C49.6536 56.6953 49.2706 56.5773 48.9453 56.3581C48.6201 56.1389 48.367 55.8283 48.2181 55.4654C48.0692 55.1025 48.0312 54.7037 48.1088 54.3192C48.1863 53.9347 48.3761 53.5818 48.6541 53.305C48.9321 53.0283 49.2858 52.8401 49.6706 52.7642C50.0555 52.6883 50.4542 52.7282 50.8164 52.8787C51.1786 53.0292 51.4881 53.2836 51.7059 53.6099C51.9236 53.9361 52.0398 54.3196 52.0398 54.7118C52.038 55.2393 51.8271 55.7445 51.4532 56.1166C51.0794 56.4887 50.5733 56.6974 50.0458 56.6968V56.697Z" fill="black"/>
<path d="M71.0963 37.2939C71.8779 37.2922 72.6415 37.0588 73.2906 36.6233C73.9396 36.1877 74.445 35.5696 74.7429 34.847C75.0408 34.1243 75.1179 33.3296 74.9643 32.5632C74.8108 31.7968 74.4335 31.0931 73.8802 30.5411C73.3269 29.989 72.6223 29.6133 71.8556 29.4614C71.0888 29.3096 70.2943 29.3884 69.5723 29.6879C68.8504 29.9874 68.2334 30.4942 67.7993 31.1443C67.3652 31.7943 67.1335 32.5584 67.1335 33.34C67.1359 34.3895 67.5544 35.3951 68.2973 36.1364C69.0403 36.8776 70.0469 37.2939 71.0963 37.2939ZM71.0963 31.3549C71.4886 31.3566 71.8715 31.4745 72.1968 31.6937C72.5221 31.9129 72.7751 32.2236 72.924 32.5864C73.0729 32.9493 73.111 33.3482 73.0334 33.7327C72.9558 34.1172 72.766 34.4701 72.488 34.7468C72.2101 35.0236 71.8563 35.2118 71.4715 35.2876C71.0867 35.3635 70.688 35.3237 70.3257 35.1732C69.9635 35.0227 69.654 34.7682 69.4363 34.442C69.2185 34.1157 69.1023 33.7323 69.1023 33.34C69.1041 32.8125 69.315 32.3073 69.6888 31.9351C70.0627 31.563 70.5688 31.3543 71.0963 31.3549Z" fill="black"/>
<path d="M73.9661 41.1054L76.5624 37.645C77.5624 36.3393 78.0598 34.7177 77.9638 33.0758C77.73 29.4934 74.7958 26.6868 71.2835 26.6868C67.7713 26.6868 64.8375 29.4934 64.6032 33.075C64.5525 33.8883 64.6537 34.7039 64.9016 35.48L48.6654 35.7778L51.1711 32.4363C52.7704 30.3506 53.5665 27.7594 53.4142 25.1356C53.2418 22.4515 52.1008 19.9213 50.2033 18.0152C49.2257 17.0369 48.0648 16.2607 46.7871 15.7312C45.5094 15.2016 44.1398 14.9291 42.7567 14.9291C41.3736 14.9291 40.0041 15.2016 38.7264 15.7312C37.4487 16.2607 36.2878 17.0369 35.3102 18.0152C33.413 19.9209 32.2721 22.4504 32.0995 25.1339C31.9321 27.636 32.7259 30.2254 34.3416 32.4347L36.5092 35.3237L13.4367 35.4758C13.2325 35.4771 13.0338 35.5419 12.868 35.6612C12.7023 35.7805 12.5778 35.9485 12.5117 36.1417L1.69362 67.7675C1.64295 67.9157 1.62838 68.0738 1.6511 68.2288C1.67383 68.3838 1.73319 68.531 1.82427 68.6585C1.91535 68.7859 2.03552 68.8897 2.17478 68.9613C2.31404 69.033 2.46839 69.0703 2.625 69.0703H81.375C81.5294 69.0703 81.6817 69.034 81.8195 68.9643C81.9572 68.8945 82.0767 68.7934 82.1681 68.6689C82.2596 68.5445 82.3205 68.4003 82.3459 68.248C82.3713 68.0957 82.3605 67.9395 82.3144 67.7921L73.9661 41.1054ZM66.5669 33.2041C66.7127 30.9683 68.5164 28.6555 71.2827 28.6555C74.049 28.6555 75.8525 30.9688 75.9985 33.2068C76.063 34.3781 75.7042 35.5336 74.9876 36.4624L71.2827 41.4007L67.5849 36.4723C66.8736 35.5356 66.5136 34.379 66.5677 33.2041H66.5669ZM65.8547 37.4309C65.9039 37.5024 65.9531 37.5736 66.004 37.6442L70.4962 43.6325C70.5879 43.7547 70.7068 43.8539 70.8435 43.9223C70.9801 43.9906 71.1309 44.0262 71.2837 44.0262C71.4365 44.0262 71.5872 43.9906 71.7239 43.9223C71.8606 43.8539 71.9795 43.7547 72.0712 43.6325L72.5107 43.0467L73.6298 46.6245L58.367 46.6279L57.2611 37.5895L65.8547 37.4309ZM35.9243 31.2636C34.5885 29.4371 33.928 27.3069 34.0646 25.2643C34.2059 23.0562 35.1442 20.9744 36.7049 19.406C37.4996 18.611 38.4432 17.9804 39.4817 17.5502C40.5202 17.1199 41.6333 16.8985 42.7574 16.8985C43.8815 16.8985 44.9946 17.1199 46.0331 17.5502C47.0716 17.9804 48.0152 18.611 48.8099 19.406C50.3715 20.9751 51.3101 23.0579 51.4513 25.2671C51.5717 27.4205 50.9138 29.5453 49.5977 31.2539L42.7575 40.3711L35.9243 31.2636ZM4.00214 67.1016L9.11597 52.1514L14.9382 52.1337L20.2712 59.2418C20.3629 59.3641 20.4818 59.4633 20.6185 59.5317C20.7552 59.6 20.9059 59.6356 21.0587 59.6356C21.2116 59.6356 21.3623 59.6 21.499 59.5317C21.6356 59.4633 21.7545 59.3641 21.8462 59.2418L26.0955 53.5774L26.1478 67.1016H4.00214ZM25.7618 50.7423L21.0586 57.0108L16.3626 50.7519C15.4394 49.4887 14.9825 48.0205 15.0767 46.6145C15.2614 43.7811 17.5496 40.8504 21.0586 40.8504C24.5675 40.8504 26.8557 43.7811 27.0408 46.6172C27.123 48.1012 26.669 49.5652 25.7618 50.7423ZM41.2763 56.7821C41.1834 56.8737 41.1096 56.9829 41.0592 57.1033C41.0088 57.2237 40.9829 57.3529 40.983 57.4834L40.9882 67.1016H28.1165L28.0547 50.7956C28.7688 49.4765 29.0985 47.9835 29.0063 46.4863C28.7282 42.2222 25.2376 38.8817 21.0597 38.8817C16.8819 38.8817 13.3914 42.2222 13.1134 46.4847C13.0385 47.7478 13.2658 49.0106 13.7763 50.1684L9.79125 50.1805L14.1492 37.4399L37.9808 37.2836L41.9711 42.6021C42.0628 42.7244 42.1817 42.8236 42.3184 42.892C42.4551 42.9603 42.6058 42.9959 42.7586 42.9959C42.9114 42.9959 43.0622 42.9603 43.1989 42.892C43.3355 42.8236 43.4544 42.7244 43.5461 42.6021L47.168 37.7736L55.2823 37.6248L56.5187 47.7311C56.5479 47.9697 56.6634 48.1893 56.8434 48.3486C57.0234 48.5079 57.2555 48.5959 57.4959 48.5958L74.2457 48.5921L76.7156 56.4879L56.7189 56.5219C56.8938 55.8453 56.9595 55.1451 56.9134 54.4478C56.6798 50.865 53.7454 48.0585 50.2332 48.0585C46.7209 48.0585 43.7865 50.865 43.5529 54.4461C43.5083 55.1457 43.5772 55.8478 43.757 56.5253L41.9821 56.4989C41.8514 56.4954 41.7213 56.5187 41.5999 56.5674C41.4785 56.6161 41.3684 56.6891 41.2763 56.7821ZM53.9378 57.8342L50.233 62.7725L46.5353 57.8442C45.8237 56.9077 45.4633 55.7512 45.5172 54.5762C45.663 52.3402 47.4669 50.0276 50.233 50.0276C52.9991 50.0276 54.8029 52.3409 54.949 54.579C55.0131 55.7503 54.6543 56.9056 53.9378 57.8344V57.8342ZM42.957 67.1016L42.9522 58.4822L44.6114 58.5069C44.718 58.6796 44.832 58.8491 44.9533 59.0154L49.4455 65.0037C49.5372 65.126 49.6561 65.2252 49.7928 65.2936C49.9294 65.3619 50.0802 65.3975 50.233 65.3975C50.3858 65.3975 50.5365 65.3619 50.6732 65.2936C50.8099 65.2252 50.9288 65.126 51.0205 65.0037L55.512 59.0173C55.6403 58.8466 55.7603 58.6716 55.8718 58.4922L77.3312 58.4558L80.0356 67.1016H42.957Z" fill="black"/>
</svg>
