<svg width="63" height="63" viewBox="0 0 63 63" fill="none" xmlns="http://www.w3.org/2000/svg">
<g clip-path="url(#clip0)">
<path d="M61.4001 16.8V16.7999C61.4001 15.3656 60.2344 14.1999 58.8001 14.1999C57.3657 14.1999 56.2 15.3657 56.2 16.7999C56.2 18.2343 57.3658 19.4 58.8001 19.4C60.2344 19.4 61.4 18.2343 61.4001 16.8ZM55.1001 16.7999C55.1001 14.7598 56.7599 13.1 58.8001 13.1C60.8402 13.1 62.5 14.7598 62.5 16.7999C62.5 18.8401 60.8402 20.4999 58.8001 20.4999C56.76 20.4999 55.1001 18.84 55.1001 16.7999Z" fill="black" stroke="#F3580B"/>
<path d="M4.19996 47.25C1.88372 47.25 0 49.1337 0 51.45C0 53.7662 1.88372 55.6499 4.19996 55.6499C6.51632 55.6499 8.39992 53.7662 8.39992 51.45C8.39992 49.1337 6.51632 47.25 4.19996 47.25ZM4.19996 53.55C3.04184 53.55 2.09992 52.6082 2.09992 51.45C2.09992 50.2917 3.04172 49.3499 4.19996 49.3499C5.35808 49.3499 6.3 50.2917 6.3 51.45C6.3 52.6082 5.3582 53.55 4.19996 53.55Z" fill="black"/>
<path d="M56.7641 13.9272L47.7058 9.55397C47.1828 9.30087 46.556 9.52137 46.304 10.0433C46.052 10.5652 46.2714 11.1931 46.7934 11.4451L55.8517 15.8183C55.9988 15.8897 56.1542 15.9232 56.3074 15.9232C56.6979 15.9232 57.0729 15.7048 57.2534 15.3289C57.5054 14.8071 57.286 14.1792 56.7641 13.9272Z" fill="black"/>
<path d="M47.25 54.6C44.9336 54.6 43.05 56.4837 43.05 58.7999C43.05 61.1162 44.9336 63 47.25 63C49.5664 63 51.45 61.1163 51.45 58.8001C51.45 56.4838 49.5664 54.6 47.25 54.6ZM47.25 60.9C46.0919 60.9 45.15 59.9582 45.15 58.7999C45.15 57.6417 46.0919 56.7 47.25 56.7C48.4081 56.7 49.35 57.6418 49.35 58.8001C49.35 59.9583 48.4081 60.9 47.25 60.9Z" fill="black"/>
<path d="M45.214 55.9272L36.1557 51.554C35.6327 51.3009 35.0059 51.5204 34.7539 52.0434C34.5019 52.5652 34.7213 53.1931 35.2433 53.4451L44.3016 57.8183C44.4487 57.8897 44.6041 57.9233 44.7573 57.9233C45.1478 57.9233 45.5227 57.7049 45.7034 57.329C45.9553 56.807 45.7359 56.1792 45.214 55.9272Z" fill="black"/>
<path d="M31.5 28.3501C29.1837 28.3501 27.3 30.2338 27.3 32.5501C27.3 34.8664 29.1838 36.75 31.5 36.75C33.8164 36.75 35.7 34.8663 35.7 32.5501C35.7 30.2338 33.8164 28.3501 31.5 28.3501ZM31.5 34.6501C30.3419 34.6501 29.4 33.7083 29.4 32.5501C29.4 31.3919 30.3418 30.45 31.5 30.45C32.6581 30.45 33.6001 31.3918 33.6001 32.5501C33.6001 33.7083 32.6581 34.6501 31.5 34.6501Z" fill="black"/>
<path d="M29.654 29.7948L22.6957 24.3715C22.2379 24.0177 21.5786 24.0964 21.2215 24.5543C20.8655 25.0121 20.9464 25.6714 21.4042 26.0285L28.3625 31.4518C28.5547 31.6009 28.7815 31.6734 29.0073 31.6734C29.3202 31.6734 29.6289 31.5348 29.8367 31.2692C30.1927 30.8112 30.1119 30.1518 29.654 29.7948Z" fill="black"/>
<path d="M50.4 27.3C44.0317 27.3 38.8499 32.4818 38.8499 38.8501C38.8499 45.2184 44.0317 50.4001 50.4 50.4001C56.7682 50.4001 61.95 45.2184 61.95 38.8501C61.95 32.4818 56.7682 27.3 50.4 27.3ZM50.4 48.3C45.1888 48.3 40.95 44.0611 40.95 38.85C40.95 33.6388 45.1888 29.4 50.4 29.4C55.6111 29.4 59.85 33.6388 59.85 38.85C59.85 44.0611 55.6111 48.3 50.4 48.3Z" fill="black"/>
<path d="M50.4 31.5C48.0836 31.5 46.2 33.3837 46.2 35.7C46.2 38.0163 48.0837 39.8999 50.4 39.8999C52.7163 39.8999 54.5999 38.0162 54.5999 35.7C54.5999 33.3837 52.7163 31.5 50.4 31.5ZM50.4 37.8C49.2419 37.8 48.2999 36.8582 48.2999 35.7C48.2999 34.5418 49.2417 33.5999 50.4 33.5999C51.5581 33.5999 52.5 34.5417 52.5 35.7C52.5 36.8582 51.5581 37.8 50.4 37.8Z" fill="black"/>
<path d="M53.446 42H47.354C45.5596 42 44.1 43.4207 44.1 45.1657V47.9336C44.1 48.3084 44.2994 48.6549 44.6239 48.8429C46.3837 49.8613 48.3808 50.4 50.4 50.4C52.4192 50.4 54.4162 49.8613 56.176 48.8429C56.5005 48.656 56.7 48.3084 56.7 47.9347V45.1669C56.7 43.4207 55.2405 42 53.446 42ZM54.5999 47.3077C51.9865 48.6097 48.8134 48.6097 46.1999 47.3077V45.1669C46.1999 44.5788 46.7176 44.1 47.3538 44.1H53.4459C54.0822 44.1 54.5998 44.5788 54.5998 45.1669V47.3077H54.5999Z" fill="black"/>
<path d="M25.2 39.9C18.8317 39.9 13.65 45.0818 13.65 51.4501C13.65 57.8184 18.8317 63 25.2 63C31.5683 63 36.75 57.8182 36.75 51.4499C36.75 45.0817 31.5683 39.9 25.2 39.9ZM25.2 60.8999C19.9888 60.8999 15.75 56.6611 15.75 51.4499C15.75 46.2388 19.9888 41.9999 25.2 41.9999C30.4112 41.9999 34.65 46.2388 34.65 51.4499C34.65 56.6611 30.4112 60.8999 25.2 60.8999Z" fill="black"/>
<path d="M25.2 44.1C22.8837 44.1 21.0001 45.9837 21.0001 48.2999C21.0001 50.6163 22.8838 52.4999 25.2 52.4999C27.5163 52.4999 29.4 50.6162 29.4 48.2999C29.4 45.9837 27.5164 44.1 25.2 44.1ZM25.2 50.4C24.0419 50.4 23.1 49.4582 23.1 48.2999C23.1 47.1418 24.0418 46.1999 25.2 46.1999C26.3581 46.1999 27.3001 47.1417 27.3001 48.2999C27.3001 49.4582 26.3581 50.4 25.2 50.4Z" fill="#F3580B"/>
<path d="M28.2461 54.6H22.154C20.3596 54.6 18.9 56.0207 18.9 57.7657V60.5335C18.9 60.9083 19.0995 61.2548 19.424 61.4429C21.1838 62.4613 23.1808 63 25.2 63C27.2192 63 29.2163 62.4613 30.9761 61.4429C31.3006 61.256 31.5 60.9085 31.5 60.5346V57.7668C31.5 56.0207 30.0406 54.6 28.2461 54.6ZM29.4 59.9077C26.7865 61.2097 23.6135 61.2097 20.9999 59.9077V57.7668C20.9999 57.1788 21.5176 56.7 22.1539 56.7H28.2459C28.8822 56.7 29.3999 57.1788 29.3999 57.7668V59.9077H29.4Z" fill="#F3580B"/>
<path d="M11.55 13.6499C5.18175 13.6499 0 18.8317 0 25.1999C0 31.5682 5.18175 36.75 11.55 36.75C17.9183 36.75 23.1001 31.5682 23.1001 25.1999C23.1 18.8317 17.9182 13.6499 11.55 13.6499ZM11.55 34.6499C6.33888 34.6499 2.10004 30.4111 2.10004 25.1999C2.10004 19.9888 6.33888 15.7499 11.55 15.7499C16.7612 15.7499 21 19.9888 21 25.1999C21 30.4111 16.7612 34.6499 11.55 34.6499Z" fill="black"/>
<path d="M11.5501 17.8501C9.2337 17.8501 7.3501 19.7338 7.3501 22.0501C7.3501 24.3663 9.23382 26.25 11.5501 26.25C13.8664 26.25 15.75 24.3663 15.75 22.0501C15.75 19.7338 13.8663 17.8501 11.5501 17.8501ZM11.5501 24.1501C10.3919 24.1501 9.45002 23.2083 9.45002 22.0501C9.45002 20.8918 10.3918 19.95 11.5501 19.95C12.7082 19.95 13.6501 20.8918 13.6501 22.0501C13.6501 23.2083 12.7082 24.1501 11.5501 24.1501Z" fill="black"/>
<path d="M14.5961 28.3501H8.50404C6.70964 28.3501 5.25006 29.7708 5.25006 31.5158V34.2837C5.25006 34.6585 5.44952 35.005 5.77399 35.193C7.53381 36.2114 9.53086 36.7501 11.5501 36.7501C13.5693 36.7501 15.5663 36.2114 17.3261 35.193C17.6506 35.0061 17.8501 34.6585 17.8501 34.2848V31.517C17.8501 29.7708 16.3905 28.3501 14.5961 28.3501ZM15.75 33.6578C13.1366 34.9598 9.96349 34.9598 7.34998 33.6578V31.517C7.34998 30.9289 7.86764 30.4501 8.50391 30.4501H14.596C15.2322 30.4501 15.7499 30.9289 15.7499 31.517V33.6578H15.75Z" fill="black"/>
<path d="M36.75 0C30.3818 0 25.2 5.18175 25.2 11.55C25.2 17.9183 30.3818 23.1001 36.75 23.1001C43.1183 23.1001 48.3001 17.9183 48.3001 11.55C48.3 5.18175 43.1182 0 36.75 0ZM36.75 21C31.5389 21 27.3001 16.7612 27.3001 11.55C27.3001 6.33888 31.5389 2.10004 36.75 2.10004C41.9612 2.10004 46.2 6.33888 46.2 11.55C46.2 16.7612 41.9612 21 36.75 21Z" fill="black"/>
<path d="M36.75 4.19995C34.4336 4.19995 32.55 6.08368 32.55 8.39991C32.55 10.7161 34.4338 12.5999 36.75 12.5999C39.0662 12.5999 40.95 10.7163 40.95 8.40003C40.95 6.0838 39.0662 4.19995 36.75 4.19995ZM36.75 10.5C35.5919 10.5 34.65 9.55815 34.65 8.39991C34.65 7.24179 35.5918 6.29987 36.75 6.29987C37.9082 6.29987 38.85 7.24167 38.85 8.39991C38.8499 9.55815 37.9081 10.5 36.75 10.5Z" fill="black"/>
<path d="M39.7961 14.7001H33.704C31.9097 14.7001 30.4501 16.1208 30.4501 17.8658V20.6336C30.4501 21.0084 30.6495 21.3549 30.974 21.543C32.7338 22.5614 34.7309 23.1001 36.7501 23.1001C38.7693 23.1001 40.7663 22.5614 42.5261 21.543C42.8506 21.356 43.0501 21.0084 43.0501 20.6347V17.8669C43.0501 16.1206 41.5905 14.7001 39.7961 14.7001ZM40.95 20.0078C38.3366 21.3098 35.1635 21.3098 32.55 20.0078V17.8669C32.55 17.2789 33.0677 16.8001 33.7039 16.8001H39.796C40.4322 16.8001 40.9499 17.2789 40.9499 17.8669V20.0078H40.95Z" fill="black"/>
<path d="M27.049 10.8664C26.6722 10.4275 26.0095 10.3749 25.5685 10.752L18.292 16.9785C17.851 17.3554 17.7996 18.018 18.1765 18.459C18.3845 18.7015 18.6784 18.8265 18.9745 18.8265C19.216 18.8265 19.4585 18.7436 19.657 18.5734L26.9335 12.3469C27.3746 11.97 27.4261 11.3074 27.049 10.8664Z" fill="black"/>
<path d="M50.1899 27.7211L43.8899 19.3211C43.5423 18.856 42.884 18.7645 42.4199 19.111C41.9558 19.4586 41.8624 20.1169 42.2099 20.58L48.5099 28.98C48.7167 29.2551 49.0317 29.4 49.3509 29.4C49.5693 29.4 49.7909 29.3317 49.9799 29.1899C50.444 28.8424 50.5375 28.1841 50.1899 27.7211Z" fill="black"/>
<path d="M41.5726 42.3224C41.225 41.8583 40.5667 41.7649 40.1026 42.1124L34.2373 46.5108C33.7731 46.8584 33.6798 47.5167 34.0272 47.9798C34.2341 48.2549 34.5491 48.3997 34.8683 48.3997C35.0877 48.3997 35.3082 48.3304 35.4973 48.1897L41.3626 43.7912C41.8267 43.4439 41.9202 42.7854 41.5726 42.3224Z" fill="black"/>
<path d="M14.7 50.4H7.34995C6.7704 50.4 6.29999 50.8693 6.29999 51.45C6.29999 52.0306 6.7704 52.4999 7.34995 52.4999H14.6999C15.2795 52.4999 15.7499 52.0306 15.7499 51.45C15.7499 50.8693 15.2796 50.4 14.7 50.4Z" fill="black"/>
<path d="M11.5501 0C9.2337 0 7.34998 1.88372 7.34998 4.19996C7.34998 6.51632 9.2337 8.39992 11.5499 8.39992C13.8663 8.39992 15.7499 6.51619 15.7499 4.19996C15.75 1.88372 13.8663 0 11.5501 0ZM11.5501 6.3C10.3919 6.3 9.45002 5.3582 9.45002 4.19996C9.45002 3.04184 10.3918 2.09992 11.5501 2.09992C12.7082 2.09992 13.6501 3.04172 13.6501 4.19996C13.65 5.3582 12.7082 6.3 11.5501 6.3Z" fill="black"/>
<path d="M11.5501 6.29993C10.9705 6.29993 10.5001 6.76923 10.5001 7.34989V14.6998C10.5001 15.2805 10.9705 15.7498 11.5501 15.7498C12.1296 15.7498 12.6 15.2805 12.6 14.6998V7.34989C12.6 6.76923 12.1296 6.29993 11.5501 6.29993Z" fill="black"/>
</g>
<defs>
<clipPath id="clip0">
<rect width="63" height="63" fill="white"/>
</clipPath>
</defs>
</svg>
