<svg width="78" height="78" viewBox="0 0 78 78" fill="none" xmlns="http://www.w3.org/2000/svg">
<path d="M76.8574 66.2505H73.2685V27.0882C73.2685 25.198 71.7309 23.6604 69.8407 23.6604H62.9334C62.3024 23.6604 61.7908 24.172 61.7908 24.803C61.7908 25.434 62.3024 25.9456 62.9334 25.9456H69.8407C70.4707 25.9456 70.9833 26.458 70.9833 27.0882V66.2499H68.5351V29.5363C68.5351 28.9053 68.0235 28.3937 67.3925 28.3937H51.9662C51.9542 27.574 51.9207 26.7579 51.8672 25.9456H57.9532C58.5842 25.9456 59.0958 25.434 59.0958 24.803C59.0958 24.172 58.5842 23.6604 57.9532 23.6604H51.6622C51.3118 20.6162 50.6664 17.639 49.73 14.7622C48.3147 10.4143 46.201 6.09258 43.3042 2.53731C41.9433 0.853741 40.4953 0 39 0C37.5047 0 36.0567 0.853741 34.6958 2.53731C31.799 6.09243 29.6853 10.4143 28.27 14.7622C27.3336 17.639 26.6881 20.6162 26.3379 23.6604H8.15929C6.26915 23.6604 4.73153 25.198 4.73153 27.0882V66.2504H1.14259C0.511574 66.2504 0 66.762 0 67.393V72.2871C0 75.4373 2.56275 78 5.71294 78H72.2871C75.4373 78 78 75.4373 78 72.2871V67.393C78 66.762 77.4884 66.2505 76.8574 66.2505ZM30.9958 13.9254C33.4082 12.4623 36.1664 11.6891 39 11.6891C41.8336 11.6891 44.5918 12.4623 47.0042 13.9254C48.7481 18.6425 49.7231 23.6701 49.6879 29.1061C49.6513 34.741 46.9946 41.5333 45.2477 47.3215H32.7305C31.5741 42.8475 28.3122 33.7187 28.3122 29.1061C28.3121 23.8415 29.2519 18.6426 30.9958 13.9254ZM51.7472 32.0742L54.4959 34.8175L56.4485 46.5336L48.9414 43.1106C50.1686 39.1542 51.2846 35.3842 51.7472 32.0742ZM29.0373 43.1202L21.5515 46.5335L23.5041 34.8174L26.3113 32.0156C26.841 35.3158 28.0178 39.6679 29.0373 43.1202ZM32.6079 49.607H45.3921L46.6156 52.0537H31.3844L32.6079 49.607ZM41.8828 54.339L39 60.1002L36.1172 54.339H41.8828ZM29.5374 59.0676C30.164 59.0667 30.673 58.5611 30.6782 57.9345C30.6849 57.1182 30.6832 55.4613 30.6811 54.3389H33.5619L37.9782 63.165C38.1719 63.5519 38.5673 63.7963 39 63.7963C39.4327 63.7963 39.8283 63.5519 40.0218 63.165L44.4381 54.3389H47.3218V57.925C47.3218 58.5561 47.8334 59.0676 48.4644 59.0676C50.6817 59.0676 52.054 60.9331 52.054 62.6615C52.054 63.2925 52.5656 63.804 53.1966 63.804H57.9289C59.2902 63.804 60.7128 64.9274 61.2721 66.2501H16.7281C17.2873 64.9276 18.7099 63.804 20.0713 63.804H24.8036C25.4346 63.804 25.9462 63.2925 25.9462 62.6615C25.9462 60.8505 27.725 59.0704 29.5374 59.0676ZM66.2499 66.2499H63.6688C63.071 63.691 60.5628 61.5187 57.9287 61.5187H54.2278C53.768 59.192 51.9319 57.3545 49.607 56.894V53.1963C49.607 53.0203 49.5651 52.8427 49.4864 52.6853L47.3229 48.3589C47.6274 47.3424 47.9431 46.3188 48.2569 45.3101L57.4548 49.504C58.1976 49.8427 59.2104 49.2039 59.0558 48.2766L56.6897 34.0802C56.6505 33.845 56.5386 33.6277 56.3698 33.4592L53.5841 30.6789H66.2499V66.2499ZM36.4776 3.96798C37.3816 2.85129 38.2302 2.28517 39 2.28517C39.7698 2.28517 40.6185 2.85129 41.5224 3.96798C43.113 5.99295 44.4945 8.25892 45.6473 10.6964C43.5469 9.84666 41.2949 9.40395 39 9.40395C36.7051 9.40395 34.4531 9.84666 32.3527 10.6964C33.5055 8.25892 34.8871 5.99295 36.4776 3.96798ZM7.0167 27.0882C7.0167 26.458 7.52934 25.9456 8.15929 25.9456H26.1328C26.0792 26.7579 26.0458 27.574 26.0338 28.3937H10.6075C9.97646 28.3937 9.46489 28.9053 9.46489 29.5363V50.7062C9.46489 51.3372 9.97646 51.8488 10.6075 51.8488C11.2385 51.8488 11.7501 51.3372 11.7501 50.7062V30.6789H24.4159L21.6302 33.4592C21.4614 33.6277 21.3496 33.8448 21.3103 34.0802L18.9442 48.2766C18.7896 49.2039 19.8024 49.8427 20.5452 49.504L29.7033 45.3283C30.1294 46.7117 30.4792 47.7944 30.669 48.3749L28.5136 52.6854C28.4349 52.8434 28.3924 53.0235 28.393 53.2001C28.393 53.2273 28.3997 55.3845 28.3971 56.911C26.1762 57.4095 24.2868 59.2994 23.7888 61.519H20.0711C17.4371 61.519 14.929 63.6913 14.3311 66.2502H11.7501V55.6866C11.7501 55.0556 11.2385 54.5441 10.6075 54.5441C9.97646 54.5441 9.46489 55.0556 9.46489 55.6866V66.2502H7.0167V27.0882ZM75.7148 72.2871C75.7148 74.1772 74.1772 75.7148 72.2871 75.7148H5.71294C3.82279 75.7148 2.28517 74.1772 2.28517 72.2871V68.5356L24.3304 68.5357L28.7284 72.9338C28.9426 73.1481 29.2333 73.2685 29.5363 73.2685H36.4924C37.1234 73.2685 37.635 72.7569 37.635 72.1259C37.635 71.4949 37.1234 70.9833 36.4924 70.9833H30.0095L27.5621 68.5359H50.4379L47.9905 70.9833H41.4726C40.8415 70.9833 40.33 71.4949 40.33 72.1259C40.33 72.7569 40.8415 73.2685 41.4726 73.2685H48.4637C48.7667 73.2685 49.0574 73.1481 49.2716 72.9338L53.6696 68.5357L75.7148 68.5356V72.2871Z" fill="black"/>
<path d="M38.9999 35.4164C43.5424 35.4164 47.2379 31.721 47.2379 27.1787C47.2379 22.6364 43.5424 18.941 38.9999 18.941C34.4575 18.941 30.7619 22.6364 30.7619 27.1787C30.7619 31.721 34.4575 35.4164 38.9999 35.4164ZM38.9999 21.2263C42.2823 21.2263 44.9528 23.8966 44.9528 27.1789C44.9528 30.4611 42.2823 33.1314 38.9999 33.1314C35.7175 33.1314 33.0471 30.4611 33.0471 27.1789C33.0471 23.8966 35.7175 21.2263 38.9999 21.2263Z" fill="#F3580B"/>
<path d="M39 30.6874C40.9347 30.6874 42.5086 29.1134 42.5086 27.1788C42.5086 25.244 40.9346 23.6702 39 23.6702C37.0654 23.6702 35.4913 25.2442 35.4913 27.1788C35.4913 29.1136 37.0652 30.6874 39 30.6874ZM39 25.9553C39.6745 25.9553 40.2234 26.5042 40.2234 27.1788C40.2234 27.8534 39.6745 28.4023 39 28.4023C38.3254 28.4023 37.7765 27.8534 37.7765 27.1788C37.7765 26.5042 38.3254 25.9553 39 25.9553Z" fill="black"/>
</svg>
