<svg width="121" height="46" viewBox="0 0 121 46" fill="none" xmlns="http://www.w3.org/2000/svg">
<path d="M4.89 32V28.49L16.44 15.05H5.25V11H22.38V14.51L10.83 27.95H22.38V32H4.89ZM39.6185 29.93C37.9585 31.55 35.8885 32.36 33.4085 32.36C30.9285 32.36 28.8585 31.56 27.1985 29.96C25.5585 28.34 24.7385 26.35 24.7385 23.99C24.7385 21.65 25.5685 19.67 27.2285 18.05C28.9085 16.43 30.9885 15.62 33.4685 15.62C35.9485 15.62 38.0085 16.43 39.6485 18.05C41.3085 19.65 42.1385 21.63 42.1385 23.99C42.1385 26.33 41.2985 28.31 39.6185 29.93ZM33.4685 28.43C34.7285 28.43 35.7385 28.01 36.4985 27.17C37.2585 26.31 37.6385 25.25 37.6385 23.99C37.6385 22.77 37.2385 21.73 36.4385 20.87C35.6585 19.99 34.6485 19.55 33.4085 19.55C32.1485 19.55 31.1385 19.98 30.3785 20.84C29.6185 21.68 29.2385 22.73 29.2385 23.99C29.2385 25.21 29.6285 26.26 30.4085 27.14C31.2085 28 32.2285 28.43 33.4685 28.43ZM45.4404 32V15.92H50.0004V19.16C51.0404 16.7 52.7504 15.52 55.1304 15.62V20.39H54.8904C53.3304 20.39 52.1204 20.87 51.2604 21.83C50.4204 22.77 50.0004 24.18 50.0004 26.06V32H45.4404ZM58.4595 32V11H63.4395L68.9595 19.88L74.4795 11H79.4595V32H74.8695V18.29L68.9595 27.26H68.8395L62.9895 18.38V32H58.4595ZM88.5844 32.3C87.0044 32.3 85.6844 31.86 84.6244 30.98C83.5844 30.1 83.0644 28.88 83.0644 27.32C83.0644 25.62 83.6444 24.34 84.8044 23.48C85.9844 22.62 87.5644 22.19 89.5444 22.19C90.8844 22.19 92.1944 22.41 93.4744 22.85V22.58C93.4744 20.62 92.3244 19.64 90.0244 19.64C88.6444 19.64 87.1644 19.93 85.5844 20.51L84.4444 17.03C86.4044 16.17 88.4844 15.74 90.6844 15.74C93.1044 15.74 94.9144 16.34 96.1144 17.54C97.2744 18.7 97.8544 20.41 97.8544 22.67V32H93.4444V30.26C92.2244 31.62 90.6044 32.3 88.5844 32.3ZM89.9644 29.15C91.0244 29.15 91.8844 28.89 92.5444 28.37C93.2044 27.83 93.5344 27.15 93.5344 26.33V25.52C92.6744 25.12 91.7044 24.92 90.6244 24.92C89.6244 24.92 88.8444 25.12 88.2844 25.52C87.7444 25.9 87.4744 26.46 87.4744 27.2C87.4744 27.8 87.7044 28.28 88.1644 28.64C88.6244 28.98 89.2244 29.15 89.9644 29.15ZM100.428 32L106.068 23.84L100.638 15.92H105.528L108.528 20.6L111.558 15.92H116.328L110.898 23.75L116.568 32H111.678L108.438 26.99L105.198 32H100.428Z" fill="black"/>
<line y1="45.5" x2="121" y2="45.5" stroke="black"/>
<line y1="0.5" x2="121" y2="0.5" stroke="black"/>
</svg>
