<svg width="58" height="58" viewBox="0 0 58 58" fill="none" xmlns="http://www.w3.org/2000/svg">
<path d="M28.8988 7.37008C29.5289 7.37008 30.0397 6.85929 30.0397 6.22922V1.14086C30.0397 0.510785 29.5289 0 28.8988 0C28.2688 0 27.758 0.510785 27.758 1.14086V6.22922C27.7581 6.85929 28.2689 7.37008 28.8988 7.37008Z" fill="#F3580B"/>
<path d="M56.7856 39.1936L54.7702 37.1838C54.0533 36.4678 53.0977 36.0734 52.0796 36.0734C51.4285 36.0734 50.8036 36.2353 50.2497 36.5388L46.4519 32.7455L46.6369 32.5607C48.1776 31.0169 48.177 28.5083 46.6367 26.9697C46.0863 26.4183 45.3995 26.0506 44.6508 25.8958C44.7539 25.54 44.8082 25.1673 44.8082 24.7859C44.8082 23.7262 44.3965 22.7324 43.6513 21.9903C43.1008 21.4389 42.4141 21.0712 41.6654 20.9164C41.7685 20.5606 41.8227 20.188 41.8227 19.8065C41.8227 18.7466 41.4111 17.7531 40.6647 17.0098C40.101 16.4468 39.408 16.0904 38.6804 15.9387C39.0697 14.5967 38.7371 13.0868 37.6813 12.0292C36.8025 11.1541 35.6099 10.778 34.4607 10.8999L26.9349 9.47537C25.7871 9.25764 24.3538 9.11366 23.449 9.93892C23.3919 9.99102 23.3337 10.051 23.2763 10.1177C21.8735 9.60632 20.2372 9.91082 19.1138 11.033C18.3685 11.7774 17.958 12.7706 17.958 13.8298C17.958 14.2113 18.012 14.5839 18.115 14.9398C17.3671 15.0945 16.6812 15.4617 16.1326 16.0114C15.3858 16.755 14.9741 17.7472 14.9733 18.8051C14.9729 19.1875 15.0272 19.5614 15.1307 19.9182C14.3825 20.0725 13.6961 20.4391 13.1458 20.9887C12.3991 21.7347 11.9879 22.7285 11.9879 23.7871C11.9879 24.598 12.2299 25.3704 12.6785 26.0229C12.1121 26.2149 11.5933 26.5345 11.1589 26.9685C9.61711 28.5083 9.61654 31.017 11.1599 32.5631L11.3442 32.7466L7.54587 36.538C6.13428 35.8734 4.39507 36.1224 3.2302 37.2858L1.21357 39.2968C0.496269 40.0132 0.101371 40.9688 0.101257 41.9875C0.101257 43.0064 0.496269 43.9621 1.21357 44.6786L3.73034 47.1924C4.1761 47.6377 4.89849 47.6372 5.34369 47.1915C5.789 46.7457 5.78854 46.0233 5.34278 45.5781L2.82601 43.0644C2.54032 42.779 2.38297 42.3966 2.38297 41.9877C2.38297 41.5788 2.54032 41.1965 2.82533 40.9118L4.84208 38.9007C5.34595 38.3974 6.11717 38.3224 6.70284 38.6726C6.74407 38.7346 6.79176 38.7935 6.84636 38.8482C6.94412 38.9462 7.05571 39.0213 7.1742 39.0762L18.7394 50.6244C18.7944 50.7442 18.8698 50.8569 18.9683 50.9555C19.0641 51.0514 19.1734 51.1256 19.2894 51.1802C19.534 51.4567 19.6691 51.8099 19.6691 52.1867C19.6691 52.5957 19.5118 52.978 19.2261 53.2633L17.2114 55.2757C16.6161 55.8683 15.6478 55.8682 15.0543 55.2775L12.5375 52.7605C12.092 52.3149 11.3697 52.3149 10.9241 52.7605C10.4786 53.206 10.4786 53.9283 10.9241 54.3738L13.4427 56.8926C14.184 57.6309 15.1576 57.9998 16.1316 57.9998C17.1058 57.9998 18.0805 57.6303 18.8227 56.8914L20.8386 54.8778C21.5559 54.1613 21.9509 53.2057 21.9509 52.1867C21.9509 51.4596 21.7487 50.7651 21.3728 50.1663L25.6475 45.8968C25.6521 45.8921 25.6566 45.8875 25.6612 45.8828C26.1507 45.3768 27.5138 45.4715 28.8321 45.563C29.7687 45.6282 30.8129 45.7006 31.8331 45.583L36.5144 50.2587C36.2111 50.8116 36.0492 51.4358 36.0492 52.0858C36.0492 53.1036 36.4443 54.0587 37.1616 54.7752L39.1776 56.7888C39.8945 57.5048 40.85 57.8993 41.8682 57.8993C42.8862 57.8993 43.8418 57.5049 44.5587 56.7888L56.7864 44.5759C57.5037 43.8595 57.8987 42.9039 57.8987 41.885C57.8986 40.8663 57.5036 39.9106 56.7856 39.1936ZM26.5101 11.7172L31.459 12.6539L28.4968 15.615C28.0386 15.3948 27.4105 14.984 26.7216 14.3249C25.7785 13.4228 25.1039 12.3811 25.0425 11.7315C25.0424 11.7311 25.0424 11.7308 25.0424 11.7305C25.0424 11.7303 25.0423 11.7302 25.0423 11.7301C25.0379 11.6834 25.0367 11.6462 25.0373 11.6177C25.1865 11.5815 25.5827 11.5413 26.5101 11.7172ZM20.7261 12.6474C21.3041 12.07 22.202 12.0034 22.855 12.4456C23.2251 13.9973 24.5488 15.4037 25.1443 15.9735C25.5857 16.3958 27.0018 17.662 28.4312 18.01C28.6246 18.2872 28.7298 18.6176 28.7298 18.9663C28.7298 19.4155 28.5571 19.8354 28.2422 20.1499C27.9283 20.4643 27.5077 20.6374 27.0578 20.6374C26.6077 20.6374 26.1871 20.4643 25.8717 20.1484L25.8716 20.1483L25.871 20.1477L20.726 15.012C20.4124 14.6988 20.2396 14.2788 20.2396 13.8298C20.2397 13.3806 20.4125 12.9607 20.7261 12.6474ZM17.745 17.6257C18.0589 17.3114 18.4791 17.1382 18.9284 17.1382C19.3782 17.1382 19.7997 17.3117 20.1157 17.6273L24.2586 21.762C24.911 22.4154 24.911 23.4786 24.2609 24.1298C23.9453 24.4441 23.5232 24.6172 23.0724 24.6172C22.6217 24.6172 22.1996 24.4441 21.8854 24.1311L21.8852 24.131L18.7423 20.9887C18.7374 20.9838 18.7321 20.9793 18.7271 20.9743L17.7438 19.9915C17.4283 19.6763 17.2546 19.2556 17.255 18.8068C17.2554 18.3595 17.4285 17.9409 17.745 17.6257ZM14.7583 22.6031C15.0724 22.2894 15.4935 22.1166 15.9441 22.1166C16.391 22.1166 16.8084 22.2869 17.1212 22.5951L20.2738 25.7463C20.5882 26.0594 20.7614 26.4789 20.7614 26.9275C20.7614 27.376 20.5882 27.7954 20.2726 28.1098C19.9586 28.4234 19.5379 28.5961 19.0881 28.5961C18.6376 28.5961 18.2156 28.4229 17.9011 28.1098L16.7582 26.9683C16.758 26.9679 16.7577 26.9677 16.7575 26.9675L14.7584 24.9708C14.4432 24.656 14.2697 24.2355 14.2697 23.7869C14.2697 23.3384 14.4432 22.9178 14.7583 22.6031ZM12.7713 28.5827C13.0868 28.2676 13.5084 28.094 13.9585 28.094C14.4085 28.094 14.83 28.2675 15.1453 28.5824L16.2898 29.7255C16.6043 30.0386 16.7774 30.4581 16.7774 30.9067C16.7774 31.3553 16.6042 31.7747 16.2874 32.0903C15.9735 32.4046 15.5529 32.5778 15.103 32.5778C14.6529 32.5778 14.2323 32.4047 13.9161 32.088L13.7728 31.9453C13.7709 31.9433 13.7694 31.9413 13.7676 31.9395C13.7655 31.9375 13.7632 31.9356 13.7611 31.9336L12.7724 30.9489C12.1201 30.2951 12.1195 29.2338 12.7713 28.5827ZM36.0205 41.5487C35.5752 41.1028 34.8528 41.1025 34.4071 41.5477L33.3921 42.5614C32.4276 43.5259 30.6801 43.4045 28.99 43.2872C27.1547 43.1597 25.2569 43.028 24.0289 44.2888L19.8267 48.4859L9.31839 37.993L13.0372 34.2809C13.6518 34.6577 14.3611 34.8597 15.1032 34.8597C16.1634 34.8597 17.1576 34.4487 17.9001 33.7048C18.6477 32.9603 19.0594 31.9667 19.0594 30.9068C19.0594 30.897 19.0588 30.8872 19.0588 30.8774C19.0686 30.8775 19.0785 30.878 19.0883 30.878C20.1471 30.878 21.1404 30.4683 21.884 29.7256C22.6315 28.9812 23.0433 27.9875 23.0433 26.9277C23.0433 26.9178 23.0426 26.9081 23.0426 26.8983C23.0526 26.8983 23.0626 26.8989 23.0727 26.8989C24.131 26.8989 25.125 26.4896 25.8735 25.7441C26.6506 24.9658 27.035 23.941 27.0276 22.9185C27.0378 22.9186 27.048 22.9191 27.0582 22.9191C28.1184 22.919 29.1125 22.5082 29.8562 21.7631C30.6014 21.0187 31.012 20.0255 31.012 18.9663C31.012 18.2256 30.8106 17.5174 30.435 16.904L33.6945 13.6459C33.9373 13.4041 34.2369 13.2523 34.5508 13.1896C34.5847 13.186 34.6183 13.1806 34.6515 13.174C35.1551 13.1046 35.684 13.26 36.0692 13.6436C36.7216 14.2971 36.7216 15.3603 36.0716 16.0115L35.0789 17.0001C35.0756 17.0034 35.0721 17.0063 35.0688 17.0096L33.9255 18.151C33.4796 18.5962 33.4791 19.3186 33.9244 19.7644C34.3699 20.2102 35.0921 20.2106 35.5378 19.7654L36.5344 18.7701C36.5347 18.7699 36.5349 18.7696 36.5351 18.7694L36.6858 18.6193C37.34 17.9711 38.3998 17.9725 39.0534 18.6251C39.3678 18.9382 39.541 19.3577 39.541 19.8063C39.541 20.2548 39.3678 20.6742 39.0509 20.9898L38.0525 21.9902C38.0524 21.9903 38.0523 21.9905 38.0522 21.9907L36.9089 23.1293C36.4625 23.5739 36.461 24.2963 36.9057 24.7426C37.3503 25.1891 38.0726 25.1904 38.519 24.7459L39.6674 23.6021C39.9814 23.2876 40.402 23.1145 40.8519 23.1145C41.302 23.1145 41.7227 23.2876 42.0389 23.6044C42.3533 23.9176 42.5264 24.3371 42.5264 24.7857C42.5264 25.2342 42.3533 25.6536 42.0371 25.9686L40.0467 27.9597C39.6013 28.4053 39.6014 29.1276 40.0469 29.573C40.2698 29.7958 40.5616 29.907 40.8535 29.907C41.1455 29.907 41.4376 29.7955 41.6603 29.5727L42.6358 28.5969C42.6413 28.5916 42.6473 28.5869 42.6529 28.5814C42.9668 28.2669 43.3874 28.0938 43.8373 28.0938C44.2874 28.0938 44.708 28.2669 45.023 28.5825C45.6748 29.2335 45.6742 30.295 45.023 30.9473L44.0313 31.9379C44.0309 31.9382 44.0305 31.9386 44.0301 31.9389C44.0298 31.9393 44.0295 31.9397 44.0291 31.9401L42.455 33.5123C42.0092 33.9576 42.0087 34.68 42.4539 35.1258C42.6768 35.3488 42.969 35.4604 43.2612 35.4604C43.5529 35.4604 43.8447 35.3491 44.0674 35.1268L44.8374 34.3577L48.5277 38.0438L38.0203 48.5384L34.2556 44.7781C34.518 44.6093 34.7692 44.4109 35.0049 44.1751L36.0193 43.1619C36.4653 42.7168 36.4658 41.9944 36.0205 41.5487ZM55.1738 42.9615L42.9461 55.1744C42.6601 55.4601 42.2772 55.6174 41.8681 55.6174C41.4589 55.6174 41.076 55.4601 40.7898 55.1743L38.7738 53.1607C38.4881 52.8755 38.3307 52.4937 38.3307 52.0858C38.3307 51.678 38.4881 51.2962 38.7738 51.0108L51.0015 38.798C51.2876 38.5122 51.6704 38.3548 52.0797 38.3548C52.4888 38.3548 52.8717 38.5122 53.1586 38.7987L55.174 40.8084C55.4597 41.0938 55.617 41.476 55.617 41.8849C55.6169 42.294 55.4595 42.6763 55.1738 42.9615Z" fill="black"/>
<path d="M13.7498 6.40817C13.9725 6.63043 14.2641 6.74144 14.5557 6.74144C14.848 6.74144 15.1404 6.62975 15.3632 6.40647C15.8083 5.96048 15.8076 5.2382 15.3616 4.79312L11.2044 0.644192C10.7585 0.19911 10.0361 0.199677 9.59105 0.645778C9.14597 1.09177 9.14665 1.81405 9.59264 2.25913L13.7498 6.40817Z" fill="#F3580B"/>
<path d="M43.242 6.74164C43.5337 6.74164 43.8255 6.6304 44.0482 6.40803L48.2022 2.25899C48.648 1.8138 48.6484 1.0914 48.2031 0.64564C47.7579 0.199878 47.0356 0.199425 46.5898 0.644734L42.4357 4.79377C41.99 5.23897 41.9895 5.96136 42.4348 6.40712C42.6577 6.63018 42.9498 6.74164 43.242 6.74164Z" fill="#F3580B"/>
<path d="M7.11622 49.074C6.67454 49.5232 6.68066 50.2456 7.13004 50.6873L7.13333 50.6905C7.35502 50.9084 7.64287 51.0169 7.9306 51.0169C8.22593 51.0169 8.52125 50.9026 8.74498 50.6751C9.18666 50.2258 9.17885 49.5018 8.72957 49.0601C8.28041 48.6185 7.55813 48.6247 7.11622 49.074Z" fill="black"/>
<path d="M38.8108 39.9053C38.9843 39.9053 39.1604 39.8658 39.3257 39.7825C39.8882 39.4988 40.1142 38.8127 39.8306 38.2502C39.5468 37.6876 38.8606 37.4615 38.2982 37.7453L38.2919 37.7485C37.7293 38.0322 37.5065 38.7167 37.7901 39.2792C37.9904 39.6766 38.3932 39.9053 38.8108 39.9053Z" fill="black"/>
</svg>
