<svg width="61" height="61" viewBox="0 0 61 61" fill="none" xmlns="http://www.w3.org/2000/svg">
<path d="M31.2964 33.2913C31.1835 33.2669 31.0677 33.2625 30.9534 33.2796C29.8077 33.1462 28.9434 32.1769 28.9415 31.0239C28.9415 30.4713 28.4935 30.0233 27.9409 30.0233C27.3883 30.0233 26.9403 30.4713 26.9403 31.0239C26.9433 32.9493 28.2311 34.6358 30.0877 35.1454V36.146C30.0877 36.6985 30.5357 37.1466 31.0882 37.1466C31.6408 37.1466 32.0888 36.6985 32.0888 36.146V35.206C34.2316 34.7575 35.688 32.7617 35.4628 30.5842C35.2371 28.4067 33.4026 26.7519 31.2133 26.7514C29.9587 26.7514 28.9415 25.7342 28.9415 24.4796C28.9415 23.225 29.9587 22.2078 31.2133 22.2078C32.4679 22.2078 33.4851 23.225 33.4851 24.4796C33.4851 25.0322 33.9331 25.4802 34.4857 25.4802C35.0383 25.4802 35.4863 25.0322 35.4863 24.4796C35.4833 22.4579 34.067 20.7142 32.0888 20.297V19.3863C32.0888 18.8338 31.6408 18.3857 31.0882 18.3857C30.5357 18.3857 30.0877 18.8338 30.0877 19.3863V20.3581C28.023 20.9219 26.6941 22.9264 26.9784 25.0478C27.2628 27.1691 29.0729 28.7526 31.2133 28.7521C32.4513 28.7521 33.4612 29.7434 33.4837 30.9809C33.5066 32.2184 32.5334 33.2464 31.2964 33.2913Z" fill="#F3580B"/>
<path d="M16.704 27.8284C16.704 35.8418 23.1999 42.3378 31.2133 42.3378C39.2267 42.3378 45.7226 35.8418 45.7226 27.8284C45.7226 19.815 39.2267 13.3191 31.2133 13.3191C23.2038 13.3279 16.7132 19.8189 16.704 27.8284ZM31.2133 15.3202C38.1216 15.3202 43.7215 20.9201 43.7215 27.8284C43.7215 34.7367 38.1216 40.3366 31.2133 40.3366C24.305 40.3366 18.7051 34.7367 18.7051 27.8284C18.7129 20.9236 24.3084 15.3281 31.2133 15.3202Z" fill="black"/>
<path d="M50.6552 44.8047L42.8172 48.508C41.735 46.4951 39.6591 45.2141 37.3746 45.1496L30.139 44.9508C28.9933 44.918 27.8691 44.6278 26.8504 44.1016L26.1142 43.7201C22.3444 41.7551 17.8511 41.76 14.0853 43.7328L14.1312 42.0648C14.1463 41.5123 13.711 41.052 13.1585 41.0369L5.22421 40.8185C4.67165 40.8034 4.21191 41.2387 4.19677 41.7912L3.71749 59.2026C3.70234 59.7552 4.13765 60.2154 4.69021 60.2306L12.6245 60.4489H12.6518C13.1941 60.4489 13.6377 60.0175 13.6524 59.4757L13.6754 58.6427L15.7366 57.5391C16.5457 57.1038 17.4915 57.0002 18.3753 57.2503L30.6842 60.705C30.7057 60.7113 30.7272 60.7162 30.7492 60.7211C31.6388 60.9072 32.5456 61.0005 33.4543 61C35.3793 61.001 37.2817 60.5862 39.0313 59.783C39.0743 59.7635 39.1158 59.7405 39.1554 59.7146L57.0021 48.1709C57.4467 47.8831 57.5903 47.2993 57.3299 46.8381C56.0049 44.4871 53.0662 43.5916 50.6552 44.8047ZM5.74551 58.2577L6.16958 42.8465L12.1032 43.0097L11.6791 58.4214L5.74551 58.2577ZM38.1299 57.9959C35.9563 58.9769 33.5286 59.2476 31.1923 58.7702L18.9167 55.3244C17.535 54.9341 16.0561 55.0958 14.7922 55.7754L13.7389 56.3396L14.0208 46.093C17.3586 43.873 21.6394 43.6448 25.1942 45.497L25.9305 45.8785C27.2173 46.543 28.6366 46.9094 30.0842 46.9514L37.3203 47.1503C39.3528 47.2089 41.0788 48.656 41.4912 50.6474L30.713 50.3499C30.1604 50.3347 29.7007 50.7705 29.6851 51.3226C29.6699 51.8752 30.1057 52.3354 30.6578 52.3505L42.5523 52.6779H42.5802C43.122 52.6774 43.5651 52.246 43.5798 51.7047C43.592 51.2698 43.5598 50.8345 43.4831 50.4065L51.5224 46.608C51.5302 46.6045 51.538 46.6006 51.5458 46.5967C52.6861 46.0197 54.0648 46.2127 55.0029 47.0809L38.1299 57.9959Z" fill="black"/>
<path d="M32.2139 10.506V1.00058C32.2139 0.448012 31.7659 0 31.2133 0C30.6608 0 30.2127 0.448012 30.2127 1.00058V10.506C30.2127 11.0586 30.6608 11.5066 31.2133 11.5066C31.7659 11.5066 32.2139 11.0586 32.2139 10.506Z" fill="black"/>
<path d="M39.7182 10.5061V6.00351C39.7182 5.45094 39.2702 5.00293 38.7176 5.00293C38.1651 5.00293 37.717 5.45094 37.717 6.00351V10.5061C37.717 11.0587 38.1651 11.5067 38.7176 11.5067C39.2702 11.5067 39.7182 11.0587 39.7182 10.5061Z" fill="black"/>
<path d="M24.7095 10.5061V6.00351C24.7095 5.45094 24.2615 5.00293 23.709 5.00293C23.1564 5.00293 22.7084 5.45094 22.7084 6.00351V10.5061C22.7084 11.0587 23.1564 11.5067 23.709 11.5067C24.2615 11.5067 24.7095 11.0587 24.7095 10.5061Z" fill="black"/>
</svg>
