<svg width="56" height="56" viewBox="0 0 56 56" fill="none" xmlns="http://www.w3.org/2000/svg">
<path d="M38.5812 31.8802H9.71024L34.7112 15.9842C34.7839 15.938 34.8468 15.8779 34.8964 15.8073C34.9459 15.7368 34.981 15.6571 34.9997 15.573C35.0184 15.4889 35.0204 15.4019 35.0055 15.3169C34.9906 15.232 34.9591 15.1509 34.9129 15.0782L32.4358 11.1825C31.871 10.2961 30.9775 9.67007 29.9516 9.44165C28.9257 9.21323 27.8511 9.40109 26.9635 9.96403L23.4454 12.2009L23.7241 10.8675C23.834 10.3854 23.8475 9.88635 23.7639 9.39904C23.6803 8.91172 23.5012 8.44572 23.237 8.02782C22.9727 7.60992 22.6285 7.24835 22.2241 6.96388C21.8197 6.67942 21.3631 6.47766 20.8805 6.37021C20.3978 6.26276 19.8987 6.25173 19.4118 6.33776C18.925 6.42379 18.4599 6.60517 18.0433 6.87149C17.6267 7.13782 17.2668 7.48383 16.9844 7.88965C16.7019 8.29547 16.5025 8.7531 16.3974 9.23625L14.5698 17.4453L8.45013 16.0831C7.5375 15.8797 6.58182 16.0243 5.77019 16.4885C4.95857 16.9528 4.34945 17.7032 4.0621 18.593C3.77476 19.4828 3.82987 20.4478 4.21666 21.299C4.60344 22.1503 5.29405 22.8265 6.15325 23.1953L2.38441 25.5917C1.4981 26.1566 0.872067 27.05 0.643645 28.0759C0.415222 29.1018 0.603067 30.1764 1.16597 31.064L3.64299 34.9598C3.68922 35.0326 3.74932 35.0955 3.81987 35.145C3.89042 35.1945 3.97004 35.2296 4.05416 35.2484C4.13829 35.2671 4.22529 35.2691 4.31018 35.2542C4.39507 35.2393 4.47621 35.2079 4.54894 35.1616L6.85456 33.696V50.3087C6.85575 51.3598 7.27382 52.3674 8.01704 53.1106C8.76026 53.8538 9.76793 54.2718 10.819 54.2729H35.2735C36.3245 54.2717 37.3321 53.8537 38.0753 53.1105C38.8184 52.3674 39.2365 51.3598 39.2377 50.3087V32.5364C39.2377 32.4502 39.2207 32.3649 39.1877 32.2852C39.1547 32.2056 39.1063 32.1332 39.0454 32.0723C38.9844 32.0113 38.912 31.963 38.8324 31.93C38.7527 31.8971 38.6674 31.8801 38.5812 31.8802ZM27.6678 11.0718C28.091 10.8011 28.5829 10.6571 29.0854 10.6568C29.2809 10.6569 29.4759 10.6784 29.6668 10.721C30.007 10.7958 30.3291 10.9374 30.6142 11.1375C30.8994 11.3376 31.1421 11.5922 31.3282 11.8867L33.4531 15.2287L23.1172 21.8006L19.5695 16.2209L27.6678 11.0718ZM17.6785 9.52161C17.8203 8.89003 18.2072 8.34064 18.754 7.9943C19.3009 7.64796 19.9629 7.53303 20.5945 7.67481C21.226 7.81659 21.7754 8.20345 22.1218 8.75029C22.4681 9.29714 22.583 9.95917 22.4413 10.5907L21.9025 13.1681L16.0327 16.914L17.6785 9.52161ZM18.4617 16.9252L22.0093 22.5049L16.02 26.3129L12.4724 20.7332L18.4617 16.9252ZM5.57499 21.0561C5.31597 20.6487 5.18356 20.1737 5.19451 19.6911C5.20546 19.2086 5.35926 18.74 5.63649 18.3449C5.91371 17.9497 6.30189 17.6456 6.75194 17.4711C7.20199 17.2965 7.6937 17.2593 8.16488 17.3642L13.4679 18.5448L7.58114 22.235L7.10405 22.1287C6.79092 22.0599 6.49455 21.9297 6.23209 21.7455C5.96962 21.5614 5.74628 21.3271 5.57499 21.0561ZM4.39866 33.7019L2.27383 30.3598C1.8973 29.7662 1.77162 29.0474 1.92438 28.3611C2.07714 27.6749 2.49586 27.0773 3.08867 26.6994L11.3648 21.4375L14.9123 27.0171L4.39866 33.7019ZM17.1248 52.9604H10.819C10.1159 52.9596 9.44195 52.68 8.94484 52.1829C8.44773 51.6858 8.16809 51.0118 8.16728 50.3087V33.1927H17.1251L17.1248 52.9604ZM25.4661 52.9604H18.4373V33.1927H25.4661V52.9604ZM37.9249 50.3087C37.9241 51.0117 37.6445 51.6857 37.1475 52.1828C36.6504 52.6799 35.9765 52.9596 35.2735 52.9604H26.7786V33.1927H37.9249V50.3087Z" fill="black"/>
<path d="M45.9192 25.9186L46.2331 24.0882C46.2538 23.9676 46.2403 23.8436 46.1942 23.7302C46.148 23.6168 46.0711 23.5186 45.9721 23.4466C45.8731 23.3747 45.7559 23.3318 45.6338 23.323C45.5117 23.3141 45.3896 23.3395 45.2812 23.3964L43.6375 24.2605L41.9938 23.3964C41.8854 23.3395 41.7632 23.3139 41.6411 23.3228C41.5189 23.3316 41.4017 23.3744 41.3026 23.4464C41.2035 23.5183 41.1266 23.6166 41.0804 23.73C41.0343 23.8435 41.0208 23.9675 41.0415 24.0882L41.3554 25.9186L40.0257 27.2147C39.9379 27.3002 39.8759 27.4085 39.8465 27.5274C39.8172 27.6463 39.8217 27.771 39.8595 27.8875C39.8973 28.004 39.967 28.1075 40.0606 28.1865C40.1543 28.2654 40.2681 28.3166 40.3893 28.3342L42.2268 28.6013L43.0487 30.2665C43.1029 30.3763 43.1867 30.4688 43.2907 30.5335C43.3947 30.5982 43.5147 30.6325 43.6372 30.6325C43.7597 30.6325 43.8797 30.5982 43.9837 30.5335C44.0878 30.4688 44.1716 30.3763 44.2258 30.2665L45.0475 28.6013L46.885 28.3342C47.0062 28.3166 47.1201 28.2654 47.2137 28.1865C47.3073 28.1075 47.377 28.004 47.4148 27.8875C47.4527 27.771 47.4572 27.6463 47.4278 27.5274C47.3984 27.4085 47.3364 27.3002 47.2487 27.2147L45.9192 25.9186ZM44.5174 27.3514C44.4121 27.3667 44.3121 27.4074 44.226 27.4699C44.1399 27.5325 44.0703 27.615 44.0232 27.7104L43.6372 28.4927L43.2511 27.7104C43.204 27.615 43.1345 27.5325 43.0484 27.47C42.9623 27.4074 42.8624 27.3668 42.7571 27.3514L41.8937 27.226L42.5184 26.6171C42.5946 26.5428 42.6516 26.4512 42.6845 26.35C42.7174 26.2488 42.7252 26.1411 42.7072 26.0362L42.5597 25.1763L43.3318 25.5822C43.426 25.6318 43.5308 25.6577 43.6372 25.6577C43.7436 25.6577 43.8484 25.6318 43.9426 25.5822L44.7147 25.1763L44.5672 26.0362C44.5492 26.1411 44.557 26.2487 44.5899 26.3499C44.6227 26.4511 44.6797 26.5428 44.7559 26.6171L45.3807 27.226L44.5174 27.3514Z" fill="#F3580B"/>
<path d="M53.467 16.8764L51.6623 16.4378L51.0005 14.7028C50.9568 14.5884 50.8821 14.4884 50.7846 14.4143C50.6871 14.3401 50.5709 14.2947 50.4489 14.2832C50.327 14.2717 50.2043 14.2945 50.0947 14.3491C49.985 14.4037 49.8929 14.4879 49.8286 14.5921L48.854 16.1729L46.9993 16.2662C46.877 16.2724 46.7589 16.3126 46.6583 16.3824C46.5577 16.4522 46.4786 16.5487 46.43 16.6611C46.3814 16.7735 46.3652 16.8972 46.3832 17.0183C46.4012 17.1394 46.4528 17.2531 46.5321 17.3464L47.7342 18.7618L47.25 20.5545C47.218 20.6727 47.2198 20.7975 47.2551 20.9148C47.2904 21.032 47.3577 21.1371 47.4496 21.218C47.5415 21.299 47.6542 21.3526 47.7749 21.3729C47.8957 21.3932 48.0197 21.3792 48.133 21.3327L49.8502 20.6268L51.4062 21.6415C51.5088 21.7084 51.628 21.7452 51.7504 21.7479C51.8728 21.7506 51.9936 21.719 52.0989 21.6566C52.2043 21.5943 52.2902 21.5037 52.3467 21.3951C52.4033 21.2865 52.4284 21.1643 52.4192 21.0422L52.2786 19.1905L53.7238 18.0249C53.8191 17.948 53.891 17.846 53.9313 17.7305C53.9717 17.6149 53.9789 17.4903 53.9522 17.3708C53.9255 17.2514 53.8659 17.1418 53.7801 17.0544C53.6944 16.967 53.5859 16.9054 53.467 16.8764ZM51.1858 18.3858C51.103 18.4526 51.0377 18.5385 50.9955 18.6362C50.9533 18.7338 50.9354 18.8403 50.9435 18.9463L51.0091 19.8162L50.2784 19.3394C50.1893 19.2813 50.0873 19.2457 49.9814 19.2357C49.8755 19.2258 49.7687 19.2417 49.6703 19.2821L48.8636 19.6138L49.0911 18.7716C49.1188 18.6689 49.1212 18.5609 49.098 18.4571C49.0748 18.3533 49.0266 18.2567 48.9578 18.1756L48.3931 17.5107L49.2643 17.4669C49.3706 17.4616 49.474 17.4306 49.5656 17.3764C49.6572 17.3223 49.7342 17.2467 49.7901 17.1561L50.2478 16.4135L50.5587 17.2286C50.5966 17.328 50.6581 17.4167 50.738 17.487C50.8178 17.5573 50.9135 17.6072 51.0169 17.6323L51.8646 17.8384L51.1858 18.3858Z" fill="#F3580B"/>
<path d="M43.8157 6.20847L43.3312 8.00113C43.2993 8.11935 43.301 8.24416 43.3363 8.36144C43.3715 8.47872 43.4389 8.58379 43.5308 8.66477C43.6227 8.74575 43.7354 8.79941 43.8561 8.81967C43.9769 8.83994 44.101 8.826 44.2142 8.77944L45.9314 8.07343L47.4868 9.08832C47.5894 9.15522 47.7086 9.1921 47.8311 9.19478C47.9535 9.19745 48.0742 9.16582 48.1796 9.10346C48.285 9.0411 48.3708 8.9505 48.4274 8.8419C48.484 8.73331 48.509 8.61104 48.4998 8.48894L48.3592 6.63722L49.8047 5.4715C49.9 5.39465 49.9719 5.29267 50.0123 5.1771C50.0526 5.06152 50.0599 4.93696 50.0331 4.81749C50.0064 4.69802 49.9468 4.58841 49.8611 4.50103C49.7753 4.41366 49.6669 4.35202 49.5479 4.32307L47.7432 3.88458L47.0815 2.14946C47.0379 2.03503 46.9631 1.9351 46.8656 1.86096C46.7681 1.78682 46.6518 1.74144 46.5299 1.72995C46.408 1.71845 46.2853 1.74131 46.1757 1.79592C46.0661 1.85054 45.9739 1.93473 45.9097 2.03899L44.9351 3.61968L43.0803 3.71286C42.958 3.719 42.8399 3.75923 42.7393 3.829C42.6386 3.89878 42.5596 3.99532 42.5109 4.1077C42.4623 4.22008 42.4461 4.34383 42.4641 4.46494C42.4822 4.58606 42.5337 4.69971 42.613 4.79305L43.8157 6.20847ZM45.3459 4.91304C45.4522 4.9077 45.5556 4.87661 45.6471 4.82244C45.7387 4.76827 45.8157 4.69264 45.8716 4.60208L46.3294 3.85954L46.6403 4.6746C46.6782 4.77401 46.7397 4.8627 46.8195 4.93305C46.8993 5.0034 46.9951 5.05328 47.0985 5.07841L47.9461 5.28436L47.2671 5.8319C47.1843 5.89867 47.1189 5.98459 47.0767 6.08224C47.0344 6.17989 47.0166 6.28635 47.0246 6.39244L47.0902 7.26241L46.3595 6.78565C46.2704 6.72752 46.1685 6.69194 46.0626 6.68195C45.9567 6.67197 45.8499 6.68789 45.7515 6.72833L44.9447 7.05996L45.1722 6.21777C45.2 6.11505 45.2024 6.00711 45.1792 5.90327C45.1559 5.79942 45.1078 5.70278 45.0389 5.62168L44.4742 4.95668L45.3459 4.91304Z" fill="#F3580B"/>
<path d="M31.9097 26.0132C30.4281 26.9457 29.7043 28.0755 29.6742 28.1232C29.581 28.2702 29.55 28.4482 29.588 28.618C29.626 28.7879 29.7299 28.9357 29.8769 29.0289C30.0239 29.1221 30.2019 29.1531 30.3718 29.1151C30.5416 29.0771 30.6894 28.9731 30.7826 28.8261C30.881 28.673 33.2555 25.0839 38.4235 26.3623C38.5919 26.4023 38.7691 26.3742 38.9169 26.2841C39.0646 26.1941 39.1708 26.0494 39.2123 25.8815C39.2539 25.7135 39.2275 25.536 39.1388 25.3874C39.0501 25.2389 38.9064 25.1314 38.7389 25.0883C35.5591 24.3015 33.27 25.1569 31.9097 26.0132Z" fill="black"/>
<path d="M44.3625 19.0633C44.5232 19.13 44.7039 19.1301 44.8648 19.0636C45.0256 18.9971 45.1535 18.8695 45.2202 18.7087C45.2869 18.5479 45.287 18.3673 45.2205 18.2064C45.154 18.0455 45.0264 17.9177 44.8656 17.851C40.1938 15.9121 36.7982 17.364 34.7725 18.9237C33.4286 19.9689 32.3162 21.2816 31.5057 22.7788C31.4673 22.856 31.4446 22.9399 31.4387 23.0259C31.4328 23.1119 31.444 23.1982 31.4714 23.2799C31.4989 23.3616 31.5422 23.437 31.5989 23.502C31.6555 23.5669 31.7244 23.6201 31.8016 23.6584C31.8788 23.6967 31.9628 23.7195 32.0487 23.7254C32.1347 23.7312 32.221 23.7201 32.3027 23.6926C32.3844 23.6652 32.4598 23.6219 32.5248 23.5652C32.5897 23.5086 32.6429 23.4397 32.6812 23.3625C33.4044 22.045 34.3884 20.8885 35.5731 19.9637C38.1202 18.0031 41.0774 17.6999 44.3625 19.0633Z" fill="black"/>
<path d="M36.9882 14.2017C36.9346 14.3673 36.9491 14.5474 37.0283 14.7024C37.1075 14.8573 37.245 14.9745 37.4106 15.028C38.3141 15.2942 39.251 15.4296 40.1929 15.4301C41.2904 15.4301 42.5579 15.232 43.6945 14.5583C45.182 13.6769 46.1358 12.1753 46.5311 10.0958C46.5475 10.011 46.547 9.92376 46.5297 9.83914C46.5123 9.75452 46.4785 9.67416 46.43 9.60267C46.3815 9.53117 46.3194 9.46995 46.2472 9.42251C46.175 9.37508 46.0942 9.34236 46.0093 9.32623C45.9244 9.31011 45.8372 9.3109 45.7527 9.32855C45.6681 9.3462 45.5879 9.38038 45.5166 9.42911C45.4452 9.47784 45.3842 9.54018 45.3371 9.61254C45.2899 9.6849 45.2575 9.76586 45.2417 9.85078C44.9203 11.5418 44.1766 12.7448 43.0311 13.4262C40.8522 14.7227 37.8612 13.7945 37.8139 13.7794C37.6484 13.7261 37.4685 13.7406 37.3137 13.8197C37.1589 13.8989 37.0418 14.0363 36.9882 14.2017Z" fill="black"/>
<path d="M28.3136 31.158C28.5473 31.158 28.7759 31.0887 28.9702 30.9589C29.1646 30.829 29.3161 30.6444 29.4056 30.4285C29.4951 30.2125 29.5185 29.9749 29.4729 29.7456C29.4273 29.5163 29.3147 29.3057 29.1495 29.1404C28.9842 28.9751 28.7736 28.8625 28.5443 28.8169C28.315 28.7713 28.0774 28.7947 27.8614 28.8841C27.6454 28.9736 27.4608 29.1251 27.331 29.3195C27.2011 29.5138 27.1318 29.7423 27.1318 29.9761C27.1322 30.2894 27.2568 30.5898 27.4783 30.8114C27.6999 31.0329 28.0002 31.1576 28.3136 31.158ZM28.3136 29.8455C28.3394 29.8455 28.3647 29.8531 28.3862 29.8675C28.4077 29.8818 28.4245 29.9022 28.4344 29.9261C28.4443 29.95 28.4469 29.9763 28.4419 30.0017C28.4368 30.027 28.4244 30.0503 28.4061 30.0686C28.3878 30.0869 28.3645 30.0994 28.3392 30.1044C28.3138 30.1094 28.2875 30.1068 28.2636 30.0969C28.2397 30.087 28.2193 30.0703 28.205 30.0488C28.1906 30.0272 28.183 30.002 28.183 29.9761C28.1832 29.9415 28.197 29.9084 28.2214 29.8839C28.2459 29.8595 28.279 29.8457 28.3136 29.8455Z" fill="black"/>
<path d="M37.6126 9.7205C37.8464 9.7205 38.0749 9.65118 38.2693 9.52131C38.4636 9.39144 38.6151 9.20685 38.7046 8.99089C38.794 8.77492 38.8174 8.53728 38.7718 8.30802C38.7262 8.07875 38.6137 7.86815 38.4484 7.70286C38.2831 7.53757 38.0725 7.425 37.8432 7.3794C37.6139 7.3338 37.3763 7.3572 37.1603 7.44666C36.9444 7.53611 36.7598 7.6876 36.6299 7.88196C36.5 8.07633 36.4307 8.30484 36.4307 8.53859C36.4311 8.85195 36.5557 9.15237 36.7773 9.37394C36.9989 9.59552 37.2993 9.72015 37.6126 9.7205ZM37.6126 8.408C37.6385 8.408 37.6638 8.41567 37.6853 8.43004C37.7068 8.4444 37.7235 8.46482 37.7334 8.48871C37.7433 8.5126 37.7459 8.53889 37.7408 8.56424C37.7358 8.5896 37.7233 8.61289 37.705 8.63116C37.6867 8.64944 37.6634 8.66188 37.6381 8.66691C37.6127 8.67194 37.5864 8.66933 37.5625 8.65943C37.5387 8.64952 37.5183 8.63275 37.5039 8.61124C37.4896 8.58973 37.4819 8.56445 37.4819 8.53859C37.4821 8.50399 37.4959 8.47086 37.5204 8.4464C37.5449 8.42195 37.578 8.40814 37.6126 8.408Z" fill="black"/>
<path d="M54.2712 8.81934C54.0374 8.81934 53.8089 8.88866 53.6146 9.01853C53.4202 9.1484 53.2687 9.333 53.1793 9.54897C53.0898 9.76494 53.0664 10.0026 53.112 10.2319C53.1576 10.4611 53.2702 10.6717 53.4355 10.837C53.6008 11.0023 53.8114 11.1149 54.0407 11.1605C54.27 11.206 54.5076 11.1826 54.7236 11.0931C54.9395 11.0037 55.1241 10.8522 55.254 10.6578C55.3838 10.4634 55.4531 10.2349 55.4531 10.0011C55.4528 9.68779 55.3281 9.38738 55.1065 9.16582C54.885 8.94426 54.5845 8.81965 54.2712 8.81934ZM54.2712 10.1318C54.2454 10.1318 54.2201 10.1242 54.1986 10.1098C54.1771 10.0954 54.1603 10.075 54.1504 10.0512C54.1406 10.0273 54.138 10.001 54.143 9.97563C54.1481 9.95028 54.1605 9.92699 54.1788 9.90871C54.1971 9.89043 54.2204 9.87798 54.2457 9.87294C54.2711 9.8679 54.2973 9.87049 54.3212 9.88038C54.3451 9.89027 54.3655 9.90702 54.3799 9.92852C54.3942 9.95001 54.4019 9.97528 54.4019 10.0011C54.4018 10.0358 54.3879 10.0689 54.3635 10.0934C54.339 10.1179 54.3058 10.1317 54.2712 10.1318Z" fill="black"/>
<path d="M27.8298 24.503C27.8298 24.2692 27.7605 24.0406 27.6306 23.8463C27.5007 23.6519 27.3161 23.5004 27.1001 23.4109C26.8841 23.3215 26.6464 23.2981 26.4171 23.3438C26.1878 23.3895 25.9772 23.5021 25.8119 23.6675C25.6467 23.8328 25.5342 24.0435 25.4886 24.2728C25.4431 24.5021 25.4666 24.7398 25.5562 24.9557C25.6457 25.1717 25.7973 25.3562 25.9918 25.486C26.1862 25.6158 26.4148 25.685 26.6486 25.6849C26.9618 25.6844 27.2621 25.5597 27.4835 25.3381C27.705 25.1165 27.8295 24.8162 27.8298 24.503ZM26.6486 24.6342C26.6227 24.6342 26.5975 24.6266 26.576 24.6123C26.5545 24.5979 26.5377 24.5776 26.5278 24.5537C26.5179 24.5299 26.5152 24.5036 26.5202 24.4783C26.5252 24.4529 26.5376 24.4296 26.5558 24.4113C26.574 24.393 26.5973 24.3805 26.6226 24.3754C26.6479 24.3703 26.6742 24.3728 26.6981 24.3826C26.722 24.3924 26.7424 24.4091 26.7569 24.4305C26.7713 24.4519 26.7791 24.4771 26.7792 24.503C26.779 24.5377 26.7651 24.5709 26.7406 24.5954C26.716 24.6199 26.6827 24.6336 26.648 24.6337L26.6486 24.6342Z" fill="black"/>
<path d="M52.325 25.2451C52.0912 25.2451 51.8627 25.3144 51.6683 25.4443C51.474 25.5742 51.3225 25.7588 51.233 25.9747C51.1436 26.1907 51.1202 26.4283 51.1658 26.6576C51.2114 26.8869 51.3239 27.0975 51.4892 27.2628C51.6545 27.4281 51.8651 27.5406 52.0944 27.5862C52.3237 27.6318 52.5613 27.6084 52.7773 27.519C52.9932 27.4295 53.1778 27.278 53.3077 27.0837C53.4376 26.8893 53.5069 26.6608 53.5069 26.427C53.5065 26.1137 53.3819 25.8133 53.1603 25.5917C52.9387 25.3701 52.6383 25.2455 52.325 25.2451ZM52.325 26.5576C52.2991 26.5576 52.2739 26.5499 52.2524 26.5356C52.231 26.5212 52.2143 26.5008 52.2044 26.4769C52.1945 26.4531 52.192 26.4268 52.197 26.4015C52.2021 26.3762 52.2145 26.3529 52.2328 26.3346C52.251 26.3164 52.2743 26.304 52.2996 26.2989C52.325 26.2939 52.3512 26.2965 52.3751 26.3064C52.3989 26.3163 52.4193 26.333 52.4337 26.3545C52.448 26.376 52.4557 26.4012 52.4557 26.427C52.4555 26.4616 52.4417 26.4948 52.4172 26.5192C52.3927 26.5437 52.3596 26.5575 52.325 26.5576Z" fill="black"/>
</svg>
