<svg width="59" height="59" viewBox="0 0 59 59" fill="none" xmlns="http://www.w3.org/2000/svg">
<path d="M29.5 0H16.7167C16.1736 0 15.7333 0.440291 15.7333 0.983333V7.86667H0.983333C0.440291 7.86667 0 8.30696 0 8.85V58.0167C0 58.5597 0.440291 59 0.983333 59H29.5C30.043 59 30.4833 58.5597 30.4833 58.0167V0.983333C30.4833 0.440291 30.043 0 29.5 0ZM28.5167 51.1333H17.7V49.1667H28.5167V51.1333ZM1.96667 14.75H15.7333V44.25H1.96667V14.75ZM28.5167 10.8167H17.7V7.86667H28.5167V10.8167ZM1.96667 46.2167H15.7333V49.1667H1.96667V46.2167ZM17.7 47.2V12.7833H28.5167V47.2H17.7ZM28.5167 1.96667V5.9H17.7V1.96667H28.5167ZM15.7333 9.83333V12.7833H1.96667V9.83333H15.7333ZM1.96667 51.1333H15.7333V57.0333H1.96667V51.1333ZM17.7 57.0333V53.1H28.5167V57.0333H17.7Z" fill="black"/>
<path d="M58.9683 53.8354L47.1683 8.6021C47.1025 8.34859 46.9383 8.13204 46.7117 8C46.4856 7.86844 46.2162 7.83243 45.9632 7.90013L31.2132 11.8335C30.6908 11.9727 30.3787 12.5076 30.515 13.0309L42.315 58.2643C42.3808 58.5178 42.5455 58.7343 42.7721 58.8659C42.9983 58.997 43.2676 59.0325 43.5202 58.9643L58.2702 55.031C58.7916 54.8918 59.1032 54.3578 58.9683 53.8354ZM34.2318 19.4874L47.0819 16.0616L47.5443 17.8314L34.6952 21.2625L34.2318 19.4874ZM48.0407 19.7395L53.7439 41.6163L40.8986 45.0435L35.1955 23.1653L48.0407 19.7395ZM54.2447 43.52L55.2515 47.3789L42.4015 50.8048L41.3984 46.9473L54.2447 43.52ZM45.5147 10.0545L46.5854 14.1598L33.7353 17.5846L32.6656 13.4813L45.5147 10.0545ZM43.9686 56.8118L42.8979 52.7066L55.748 49.2798L56.8178 53.3831L43.9686 56.8118Z" fill="#F3580B"/>
<path d="M12.7833 17.7H4.91668C4.37364 17.7 3.93335 18.1402 3.93335 18.6833V26.55C3.93335 27.093 4.37364 27.5333 4.91668 27.5333H12.7833C13.3264 27.5333 13.7667 27.093 13.7667 26.55V18.6833C13.7667 18.1402 13.3264 17.7 12.7833 17.7ZM11.8 25.5666H5.90002V19.6666H11.8V25.5666Z" fill="black"/>
</svg>
