<svg width="66" height="66" viewBox="0 0 66 66" fill="none" xmlns="http://www.w3.org/2000/svg">
<g clip-path="url(#clip0)">
<path d="M60.7275 56.2972H41.0865C43.8658 55.1432 46.3976 53.5106 48.579 51.5022H52.3541C59.8785 51.5022 66 45.3807 66 37.8562C66 33.8523 62.7425 30.5948 58.7387 30.5948H56.805V27.0013C56.805 25.6502 55.7058 24.551 54.3547 24.551H8.36692C7.01585 24.551 5.91667 25.6502 5.91667 27.0013V31.2899C5.91667 31.8238 6.34953 32.2567 6.88346 32.2567C7.41739 32.2567 7.85026 31.8238 7.85026 31.2899V27.0013C7.85026 26.7164 8.08204 26.4846 8.36692 26.4846H19.8634V30.9082C19.6002 31.0261 19.3575 31.191 19.1483 31.4021L15.519 35.0656C15.077 35.5119 14.8335 36.1037 14.8335 36.7319V44.8147C14.8335 46.1201 15.8956 47.1822 17.201 47.1822H24.4594C25.7649 47.1822 26.8271 46.1201 26.8271 44.8147V36.7319C26.8271 36.1036 26.5836 35.5119 26.1414 35.0656L22.5123 31.4023C22.3031 31.191 22.0602 31.0261 21.7971 30.9082V26.4846H54.3549C54.6397 26.4846 54.8715 26.7164 54.8715 27.0013V32.7831V32.7912C54.8692 45.7187 44.3534 56.2972 31.361 56.2972C19.4977 56.2972 9.46597 47.4319 8.02622 35.6756C7.96138 35.1457 7.47927 34.768 6.94908 34.8335C6.41914 34.8983 6.04209 35.3807 6.10693 35.9106C7.24879 45.2342 13.383 52.8771 21.631 56.2972H1.99418C0.894609 56.2972 0 57.1918 0 58.2913C0 61.0905 2.27726 63.3678 5.07646 63.3678H46.5843C47.1182 63.3678 47.5511 62.9349 47.5511 62.401C47.5511 61.8671 47.1182 61.4342 46.5843 61.4342H5.07646C3.34344 61.4342 1.93359 60.0244 1.93359 58.2913C1.93359 58.2579 1.96079 58.2308 1.99418 58.2308H60.7275C60.7609 58.2308 60.7881 58.2579 60.7881 58.2913C60.7881 60.0244 59.3782 61.4342 57.6452 61.4342H51.0959C50.5619 61.4342 50.1291 61.8671 50.1291 62.401C50.1291 62.9349 50.5619 63.3678 51.0959 63.3678H57.6452C60.4444 63.3678 62.7217 61.0905 62.7217 58.2913C62.7217 57.1916 61.827 56.2972 60.7275 56.2972ZM24.7677 36.4264C24.8487 36.5082 24.8933 36.6167 24.8933 36.7319V44.8147C24.8933 45.054 24.6987 45.2486 24.4593 45.2486H17.2009C16.9616 45.2486 16.767 45.054 16.767 44.8147V36.7319C16.767 36.6167 16.8116 36.5082 16.8926 36.4264L19.8633 33.4276V36.1777C19.8633 36.7117 20.2962 37.1445 20.8301 37.1445C21.364 37.1445 21.7969 36.7117 21.7969 36.1777V33.4276L24.7677 36.4264ZM56.6066 35.9666H58.7387C59.7807 35.9666 60.6282 36.8143 60.6282 37.8561C60.6282 42.189 57.2798 45.7521 53.0351 46.0999C54.8969 43.0801 56.146 39.6444 56.6066 35.9666ZM56.8058 32.5284H58.7387C61.6765 32.5284 64.0664 34.9184 64.0664 37.8562C64.0664 44.3144 58.8123 49.5686 52.3541 49.5686H50.4848C50.9114 49.0827 51.3196 48.5804 51.708 48.064H52.3541C57.9827 48.064 62.5619 43.4849 62.5619 37.8562C62.5619 35.7481 60.8468 34.0331 58.7388 34.0331H56.7744C56.7985 33.5335 56.8051 33.0287 56.8058 32.5284Z" fill="black"/>
<path d="M30.0875 21.9881C30.615 21.9881 31.0426 21.5605 31.0426 21.033C31.0426 18.6661 33.5894 18.508 33.5894 15.2183C33.5894 11.9254 31.0426 11.7751 31.0426 9.40287C31.0426 7.03821 33.5894 6.87514 33.5894 3.58739C33.5894 3.05991 33.1618 2.63232 32.6343 2.63232C32.1068 2.63232 31.6792 3.05991 31.6792 3.58739C31.6792 5.9545 29.1324 6.11292 29.1324 9.40287C29.1324 12.6962 31.6792 12.8458 31.6792 15.2183C31.6792 17.5852 29.1324 17.7435 29.1324 21.033C29.1324 21.5605 29.56 21.9881 30.0875 21.9881Z" fill="#F3580B"/>
<path d="M37.3068 21.9881C37.8342 21.9881 38.2618 21.5605 38.2618 21.033C38.2618 18.6661 40.8086 18.508 40.8086 15.2183C40.8086 11.9254 38.2618 11.7751 38.2618 9.40287C38.2618 7.03821 40.8086 6.87514 40.8086 3.58739C40.8086 3.05991 40.381 2.63232 39.8536 2.63232C39.3261 2.63232 38.8985 3.05991 38.8985 3.58739C38.8985 5.9545 36.3517 6.11292 36.3517 9.40287C36.3517 12.6962 38.8985 12.8458 38.8985 15.2183C38.8985 17.5852 36.3517 17.7435 36.3517 21.033C36.3517 21.5605 36.7793 21.9881 37.3068 21.9881Z" fill="#F3580B"/>
<path d="M22.8682 21.9881C23.3957 21.9881 23.8233 21.5605 23.8233 21.033C23.8233 18.6661 26.3701 18.508 26.3701 15.2183C26.3701 11.9254 23.8233 11.7751 23.8233 9.40287C23.8233 7.03821 26.3701 6.87514 26.3701 3.58739C26.3701 3.05991 25.9425 2.63232 25.415 2.63232C24.8875 2.63232 24.46 3.05991 24.46 3.58739C24.46 5.9545 21.9132 6.11292 21.9132 9.40287C21.9132 12.6962 24.46 12.8458 24.46 15.2183C24.46 17.5852 21.9132 17.7435 21.9132 21.033C21.9132 21.5605 22.3407 21.9881 22.8682 21.9881Z" fill="#F3580B"/>
</g>
<defs>
<clipPath id="clip0">
<rect width="66" height="66" fill="white"/>
</clipPath>
</defs>
</svg>
