<svg width="62" height="61" viewBox="0 0 62 61" fill="none" xmlns="http://www.w3.org/2000/svg">
<path d="M60.0625 35.2656V31.4531C60.0625 31.2003 59.9604 30.9579 59.7788 30.7792C59.5971 30.6004 59.3507 30.5 59.0938 30.5H46.5V29.5469C46.4977 28.7892 46.1908 28.0632 45.6462 27.5275C45.1017 26.9917 44.3638 26.6898 43.5938 26.6875H42.625V24.7812H47.4688C48.2388 24.779 48.9767 24.477 49.5212 23.9413C50.0658 23.4055 50.3727 22.6795 50.375 21.9219V4.76562C50.3727 4.00797 50.0658 3.28199 49.5212 2.74624C48.9767 2.21049 48.2388 1.90851 47.4688 1.90625H14.5312C13.7612 1.90851 13.0233 2.21049 12.4788 2.74624C11.9342 3.28199 11.6273 4.00797 11.625 4.76562V21.9219C11.6273 22.6795 11.9342 23.4055 12.4788 23.9413C13.0233 24.477 13.7612 24.779 14.5312 24.7812H19.375V26.6875H18.4062C17.6362 26.6898 16.8983 26.9917 16.3538 27.5275C15.8092 28.0632 15.5023 28.7892 15.5 29.5469V30.5H2.90625C2.64932 30.5 2.40292 30.6004 2.22124 30.7792C2.03956 30.9579 1.9375 31.2003 1.9375 31.4531V35.2656C1.9375 35.5184 2.03956 35.7608 2.22124 35.9396C2.40292 36.1183 2.64932 36.2188 2.90625 36.2188H4.71781L1.94719 58.0263C1.92859 58.1594 1.93976 58.2948 1.97992 58.4233C2.02007 58.5517 2.08825 58.6699 2.17969 58.7697C2.26969 58.8723 2.38128 58.9544 2.50674 59.0104C2.63219 59.0663 2.76851 59.0948 2.90625 59.0938H4.84375C5.05336 59.0938 5.25731 59.0269 5.425 58.9031C5.59269 58.7794 5.71506 58.6055 5.77375 58.4075L12.3516 36.2188H15.5V39.0781C15.5 39.3309 15.6021 39.5733 15.7837 39.7521C15.9654 39.9308 16.2118 40.0312 16.4688 40.0312H19.375V41.9375C19.375 42.1903 19.4771 42.4327 19.6587 42.6115C19.8404 42.7902 20.0868 42.8906 20.3438 42.8906H28.0938V48.6094H21.3125C21.0556 48.6094 20.8092 48.7098 20.6275 48.8885C20.4458 49.0673 20.3438 49.3097 20.3438 49.5625V53.5466C19.6974 53.7714 19.1526 54.2138 18.8057 54.7956C18.4588 55.3774 18.3322 56.0611 18.4481 56.7259C18.564 57.3907 18.9151 57.9938 19.4393 58.4286C19.9634 58.8633 20.6269 59.1018 21.3125 59.1018C21.9981 59.1018 22.6616 58.8633 23.1857 58.4286C23.7099 57.9938 24.061 57.3907 24.1769 56.7259C24.2928 56.0611 24.1662 55.3774 23.8193 54.7956C23.4724 54.2138 22.9276 53.7714 22.2812 53.5466V50.5156H30.0312V53.5466C29.3849 53.7714 28.8401 54.2138 28.4932 54.7956C28.1463 55.3774 28.0197 56.0611 28.1356 56.7259C28.2515 57.3907 28.6026 57.9938 29.1268 58.4286C29.6509 58.8633 30.3144 59.1018 31 59.1018C31.6856 59.1018 32.3491 58.8633 32.8732 58.4286C33.3974 57.9938 33.7485 57.3907 33.8644 56.7259C33.9803 56.0611 33.8537 55.3774 33.5068 54.7956C33.1599 54.2138 32.6151 53.7714 31.9688 53.5466V50.5156H39.7188V53.5466C39.0724 53.7714 38.5276 54.2138 38.1807 54.7956C37.8338 55.3774 37.7072 56.0611 37.8231 56.7259C37.939 57.3907 38.2901 57.9938 38.8143 58.4286C39.3384 58.8633 40.0019 59.1018 40.6875 59.1018C41.3731 59.1018 42.0366 58.8633 42.5607 58.4286C43.0849 57.9938 43.436 57.3907 43.5519 56.7259C43.6678 56.0611 43.5412 55.3774 43.1943 54.7956C42.8474 54.2138 42.3026 53.7714 41.6562 53.5466V49.5625C41.6562 49.3097 41.5542 49.0673 41.3725 48.8885C41.1908 48.7098 40.9444 48.6094 40.6875 48.6094H33.9062V42.8906H41.6562C41.9132 42.8906 42.1596 42.7902 42.3413 42.6115C42.5229 42.4327 42.625 42.1903 42.625 41.9375V40.0312H45.5312C45.7882 40.0312 46.0346 39.9308 46.2163 39.7521C46.3979 39.5733 46.5 39.3309 46.5 39.0781V36.2188H49.6484L56.2262 58.4075C56.2849 58.6055 56.4073 58.7794 56.575 58.9031C56.7427 59.0269 56.9466 59.0938 57.1562 59.0938H59.0938C59.2315 59.0948 59.3678 59.0663 59.4933 59.0104C59.6187 58.9544 59.7303 58.8723 59.8203 58.7697C59.9117 58.6699 59.9799 58.5517 60.0201 58.4233C60.0602 58.2948 60.0714 58.1594 60.0528 58.0263L57.2822 36.2188H59.0938C59.3507 36.2188 59.5971 36.1183 59.7788 35.9396C59.9604 35.7608 60.0625 35.5184 60.0625 35.2656ZM4.11719 57.1875H4.00094L6.665 36.2188H10.3366L4.11719 57.1875ZM15.5 34.3125H3.875V32.4062H15.5V34.3125ZM19.375 38.125H17.4375V29.5469C17.4375 29.2941 17.5396 29.0517 17.7212 28.8729C17.9029 28.6942 18.1493 28.5938 18.4062 28.5938H19.375V38.125ZM21.3125 57.1875C21.1209 57.1875 20.9336 57.1316 20.7743 57.0269C20.615 56.9221 20.4908 56.7733 20.4175 56.5991C20.3442 56.425 20.325 56.2333 20.3624 56.0484C20.3997 55.8635 20.492 55.6937 20.6275 55.5604C20.763 55.4271 20.9356 55.3363 21.1235 55.2996C21.3114 55.2628 21.5062 55.2817 21.6832 55.3538C21.8602 55.4259 22.0115 55.5481 22.118 55.7048C22.2244 55.8616 22.2812 56.0459 22.2812 56.2344C22.2812 56.4872 22.1792 56.7296 21.9975 56.9083C21.8158 57.0871 21.5694 57.1875 21.3125 57.1875ZM40.6875 55.2812C40.8791 55.2812 41.0664 55.3372 41.2257 55.4419C41.385 55.5466 41.5092 55.6955 41.5825 55.8696C41.6558 56.0438 41.675 56.2354 41.6376 56.4203C41.6003 56.6052 41.508 56.775 41.3725 56.9083C41.237 57.0416 41.0644 57.1324 40.8765 57.1692C40.6886 57.206 40.4938 57.1871 40.3168 57.1149C40.1398 57.0428 39.9885 56.9206 39.882 56.7639C39.7756 56.6072 39.7188 56.4229 39.7188 56.2344C39.7188 55.9816 39.8208 55.7392 40.0025 55.5604C40.1842 55.3817 40.4306 55.2812 40.6875 55.2812ZM31 57.1875C30.8084 57.1875 30.6211 57.1316 30.4618 57.0269C30.3025 56.9221 30.1783 56.7733 30.105 56.5991C30.0317 56.425 30.0125 56.2333 30.0499 56.0484C30.0872 55.8635 30.1795 55.6937 30.315 55.5604C30.4505 55.4271 30.6231 55.3363 30.811 55.2996C30.9989 55.2628 31.1937 55.2817 31.3707 55.3538C31.5477 55.4259 31.699 55.5481 31.8055 55.7048C31.9119 55.8616 31.9688 56.0459 31.9688 56.2344C31.9688 56.4872 31.8667 56.7296 31.685 56.9083C31.5033 57.0871 31.2569 57.1875 31 57.1875ZM31.9688 48.6094H30.0312V42.8906H31.9688V48.6094ZM40.6875 40.9844H21.3125V21.9219C21.3125 21.6691 21.4146 21.4267 21.5962 21.2479C21.7779 21.0692 22.0243 20.9688 22.2812 20.9688H39.7188C39.9757 20.9688 40.2221 21.0692 40.4038 21.2479C40.5854 21.4267 40.6875 21.6691 40.6875 21.9219V40.9844ZM25.1875 19.0625V17.1562C25.1875 15.6395 25.7999 14.185 26.8899 13.1125C27.98 12.04 29.4584 11.4375 31 11.4375C32.5416 11.4375 34.02 12.04 35.1101 13.1125C36.2001 14.185 36.8125 15.6395 36.8125 17.1562V19.0625H25.1875ZM39.7188 19.0625H38.75V17.1562C38.75 15.134 37.9335 13.1945 36.4801 11.7646C35.0267 10.3346 33.0554 9.53125 31 9.53125C28.9446 9.53125 26.9733 10.3346 25.5199 11.7646C24.0665 13.1945 23.25 15.134 23.25 17.1562V19.0625H22.2812C21.5112 19.0648 20.7733 19.3667 20.2288 19.9025C19.6842 20.4382 19.3773 21.1642 19.375 21.9219V22.875H14.5312C14.2743 22.875 14.0279 22.7746 13.8462 22.5958C13.6646 22.4171 13.5625 22.1747 13.5625 21.9219V4.76562C13.5625 4.51284 13.6646 4.27041 13.8462 4.09166C14.0279 3.91292 14.2743 3.8125 14.5312 3.8125H47.4688C47.7257 3.8125 47.9721 3.91292 48.1538 4.09166C48.3354 4.27041 48.4375 4.51284 48.4375 4.76562V21.9219C48.4375 22.1747 48.3354 22.4171 48.1538 22.5958C47.9721 22.7746 47.7257 22.875 47.4688 22.875H42.625V21.9219C42.6227 21.1642 42.3158 20.4382 41.7712 19.9025C41.2267 19.3667 40.4888 19.0648 39.7188 19.0625ZM44.5625 38.125H42.625V28.5938H43.5938C43.8507 28.5938 44.0971 28.6942 44.2788 28.8729C44.4604 29.0517 44.5625 29.2941 44.5625 29.5469V38.125ZM57.9991 57.1875H57.8828L51.6634 36.2188H55.335L57.9991 57.1875ZM58.125 34.3125H46.5V32.4062H58.125V34.3125Z" fill="black"/>
<path d="M44.5625 10.4844H46.5V6.67188C46.5 6.41909 46.3979 6.17666 46.2163 5.99791C46.0346 5.81917 45.7882 5.71875 45.5312 5.71875H41.6562V7.625H44.5625V10.4844Z" fill="#F3580B"/>
<path d="M46.5 12.3906H44.5625V14.2969H46.5V12.3906Z" fill="#F3580B"/>
</svg>
