<svg width="70" height="69" viewBox="0 0 70 69" fill="none" xmlns="http://www.w3.org/2000/svg">
<g clip-path="url(#clip0)">
<path d="M50.7817 30.9714C42.7338 30.9714 36.1863 37.4254 36.1863 45.3583C36.1863 53.2913 42.7338 59.7452 50.7817 59.7452C58.8297 59.7452 65.3771 53.2913 65.3771 45.3583C65.3771 37.4254 58.8297 30.9714 50.7817 30.9714ZM50.7817 57.7237C43.8646 57.7237 38.2371 52.1767 38.2371 45.3583C38.2371 38.54 43.8646 32.9929 50.7817 32.9929C57.6989 32.9929 63.3263 38.54 63.3263 45.3583C63.3263 52.1767 57.6989 57.7237 50.7817 57.7237Z" fill="black"/>
<path d="M50.7817 37.1094C51.3481 37.1094 51.807 36.657 51.807 36.0987V35.6357C51.807 35.0774 51.3481 34.625 50.7817 34.625C50.2152 34.625 49.7563 35.0774 49.7563 35.6357V36.0987C49.7563 36.657 50.2154 37.1094 50.7817 37.1094Z" fill="#F3580B"/>
<path d="M57.031 37.7686L56.6988 38.0961C56.2984 38.4909 56.2984 39.1308 56.6988 39.5255C56.8991 39.7228 57.1616 39.8215 57.424 39.8215C57.6863 39.8215 57.9488 39.7228 58.1491 39.5255L58.4814 39.198C58.8818 38.8032 58.8818 38.1633 58.4814 37.7686C58.0808 37.374 57.4316 37.374 57.031 37.7686Z" fill="#F3580B"/>
<path d="M59.1499 45.3582C59.1499 45.9165 59.6089 46.3689 60.1753 46.3689H60.6451C61.2115 46.3689 61.6704 45.9165 61.6704 45.3582C61.6704 44.7998 61.2115 44.3474 60.6451 44.3474H60.1753C59.609 44.3474 59.1499 44.7998 59.1499 45.3582Z" fill="#F3580B"/>
<path d="M41.3879 44.3474H40.9181C40.3517 44.3474 39.8927 44.7998 39.8927 45.3582C39.8927 45.9165 40.3517 46.3689 40.9181 46.3689H41.3879C41.9543 46.3689 42.4133 45.9165 42.4133 45.3582C42.4133 44.7998 41.9543 44.3474 41.3879 44.3474Z" fill="#F3580B"/>
<path d="M58.1489 51.1908C57.7484 50.796 57.0991 50.796 56.6988 51.1912C56.2985 51.5859 56.2986 52.2259 56.6992 52.6205L57.0315 52.9478C57.2316 53.1451 57.494 53.2436 57.7563 53.2436C58.0188 53.2436 58.2813 53.145 58.4816 52.9474C58.8819 52.5527 58.8818 51.9127 58.4812 51.5181L58.1489 51.1908Z" fill="#F3580B"/>
<path d="M50.7817 53.6072C50.2152 53.6072 49.7563 54.0596 49.7563 54.6179V55.081C49.7563 55.6393 50.2152 56.0917 50.7817 56.0917C51.3481 56.0917 51.807 55.6393 51.807 55.081V54.6179C51.807 54.0596 51.3481 53.6072 50.7817 53.6072Z" fill="#F3580B"/>
<path d="M43.414 51.1911L43.082 51.5185C42.6815 51.9133 42.6815 52.5532 43.082 52.9479C43.2822 53.1452 43.5447 53.2439 43.8071 53.2439C44.0695 53.2439 44.332 53.1452 44.5323 52.9479L44.8644 52.6206C45.2648 52.2257 45.2648 51.5858 44.8644 51.1911C44.4638 50.7966 43.8146 50.7966 43.414 51.1911Z" fill="#F3580B"/>
<path d="M43.414 39.5253C43.6143 39.7229 43.8768 39.8215 44.1393 39.8215C44.4017 39.8215 44.6641 39.7229 44.8642 39.5257C45.2648 39.131 45.2649 38.491 44.8646 38.0964L44.5325 37.7689C44.132 37.3738 43.4827 37.3742 43.0825 37.7685C42.6819 38.1632 42.6818 38.8032 43.0821 39.1978L43.414 39.5253Z" fill="#F3580B"/>
<path d="M53.5766 44.3475H51.8072V40.0237C51.8072 39.4653 51.3482 39.0129 50.7818 39.0129C50.2154 39.0129 49.7564 39.4653 49.7564 40.0237V45.3582C49.7564 45.9166 50.2154 46.369 50.7818 46.369H53.5766C54.143 46.369 54.602 45.9166 54.602 45.3582C54.602 44.7999 54.1429 44.3475 53.5766 44.3475Z" fill="#F3580B"/>
<path d="M66.3798 34.2913C66.0484 33.8385 65.4079 33.7364 64.9482 34.0626C64.489 34.3892 64.3851 35.0208 64.7162 35.4738C66.8313 38.365 67.9491 41.7831 67.9491 45.3584C67.9491 54.6894 60.2477 62.2807 50.7816 62.2807C41.3154 62.2807 33.6141 54.6894 33.6141 45.3584C33.6141 36.0275 41.3154 28.4362 50.7816 28.4362C54.9557 28.4362 58.9795 29.9314 62.1119 32.6463C62.5371 33.0144 63.185 32.9739 63.5591 32.5545C63.9328 32.1354 63.8914 31.4966 63.466 31.128C61.0257 29.013 58.1021 27.5601 54.9752 26.8714L57.4216 16.5129C58.0489 13.8568 56.0051 11.3136 53.2341 11.3136H39.7132V8.62586C39.7132 6.46005 37.9256 4.698 35.7284 4.698H21.807C19.6098 4.698 17.8222 6.45992 17.8222 8.62586V11.3135H11.6305C11.064 11.3135 10.6051 11.7659 10.6051 12.3242C10.6051 12.8826 11.064 13.335 11.6305 13.335H53.2342C54.6811 13.335 55.753 14.6628 55.4245 16.0544L52.9492 26.5352C52.2329 26.4551 51.5094 26.4146 50.7818 26.4146C47.2186 26.4146 43.8796 27.3765 41.0157 29.0491H34.15V27.8769C34.15 26.493 33.0079 25.3672 31.6039 25.3672H25.9317C24.5278 25.3672 23.3856 26.493 23.3856 27.8769V29.0491H7.12766C5.97841 29.0491 4.99691 28.2735 4.73851 27.1795L2.11092 16.0542C1.78293 14.6654 2.85166 13.335 4.30128 13.335H7.53057C8.09699 13.335 8.55595 12.8826 8.55595 12.3242C8.55595 11.7659 8.09699 11.3135 7.53057 11.3135H4.30128C1.52454 11.3135 -0.512292 13.8626 0.113604 16.5126L2.74119 27.6377C2.89896 28.3056 3.20221 28.9064 3.61263 29.4122V42.6332C3.61263 45.3104 5.82241 47.4886 8.53845 47.4886H14.9181C15.4846 47.4886 15.9435 47.0362 15.9435 46.4779C15.9435 45.9195 15.4846 45.4671 14.9181 45.4671H8.53859C6.95321 45.4671 5.66354 44.1958 5.66354 42.6332V30.8322C6.12415 30.9869 6.61702 31.0707 7.1278 31.0707H23.3856V32.2312C23.3856 33.6151 24.5279 34.7409 25.9317 34.7409H31.6039C33.0079 34.7409 34.15 33.6151 34.15 32.2312V31.0707H38.1764C34.0055 34.6506 31.5324 39.8464 31.5648 45.4673H19.0182C18.4518 45.4673 17.9928 45.9197 17.9928 46.478C17.9928 47.0363 18.4518 47.4887 19.0182 47.4887H31.6857C32.7631 56.9351 40.9155 64.3023 50.7818 64.3023C61.3788 64.3023 70 55.804 70 45.3585C70 41.356 68.7481 37.5291 66.3798 34.2913ZM19.8729 8.62586C19.8729 7.57469 20.7406 6.71947 21.807 6.71947H35.7283C36.7948 6.71947 37.6623 7.57469 37.6623 8.62586V11.3135H19.8729V8.62586ZM32.0992 32.231C32.0992 32.5003 31.8771 32.7193 31.6039 32.7193H25.9317C25.6586 32.7193 25.4364 32.5003 25.4364 32.231V27.8768C25.4364 27.6075 25.6586 27.3885 25.9317 27.3885H31.6039C31.8771 27.3885 32.0992 27.6075 32.0992 27.8768V32.231Z" fill="black"/>
</g>
<defs>
<clipPath id="clip0">
<rect width="70" height="69" fill="white"/>
</clipPath>
</defs>
</svg>
