<svg width="11" height="24" viewBox="0 0 11 24" fill="none" xmlns="http://www.w3.org/2000/svg">
<g clip-path="url(#clip0)">
<path d="M3.62542 1.23615C4.54612 0.3452 5.84952 0.0423738 7.08478 0.00730583C8.38854 -0.0043835 9.6923 0.00146117 10.9957 0.00146117C11.0014 1.40491 11.0014 2.80251 10.9957 4.20596C10.1553 4.20596 9.30888 4.20596 8.46852 4.20596C7.93661 4.1709 7.38785 4.58441 7.29065 5.12613C7.27917 6.06384 7.28491 7.00117 7.28491 7.93888C8.51981 7.94472 9.75506 7.93888 10.99 7.94472C10.8985 9.30141 10.7328 10.6526 10.5384 11.9921C9.44625 12.0038 8.3541 11.9921 7.26196 11.998C7.25048 15.9987 7.2677 19.9935 7.25622 23.9945C5.63217 24.0004 4.01422 23.9887 2.39017 24.0004C2.36147 19.9997 2.39017 15.999 2.37295 11.998C1.58388 11.9921 0.78907 12.0038 0 11.9921C0.00573869 10.6468 0 9.30178 0 7.96225C0.78907 7.95057 1.58388 7.96225 2.37295 7.95641C2.3959 6.65195 2.34999 5.34165 2.3959 4.0372C2.48198 2.99502 2.86504 1.95248 3.62542 1.23615Z" fill="black"/>
</g>
<defs>
<clipPath id="clip0">
<rect width="11" height="24" fill="white"/>
</clipPath>
</defs>
</svg>
