<svg width="25" height="24" viewBox="0 0 25 24" fill="none" xmlns="http://www.w3.org/2000/svg">
<path d="M25 14.7143V24H19.6415V15.3361C19.6415 13.1599 18.8663 11.6746 16.9272 11.6746C15.4466 11.6746 14.5655 12.6756 14.1777 13.6441C14.0362 13.9903 13.9997 14.4722 13.9997 14.9564V24H8.63948C8.63948 24 8.71156 9.3264 8.63948 7.80631H13.9988V10.1016C13.988 10.1188 13.9741 10.1373 13.9637 10.1541H13.9988V10.1016C14.711 8.99966 15.9826 7.42573 18.8289 7.42573C22.3564 7.42573 25 9.74047 25 14.7143ZM3.03283 0C1.19908 0 0 1.20828 0 2.7976C0 4.35208 1.16484 5.59701 2.96211 5.59701H2.99769C4.86703 5.59701 6.02917 4.35208 6.02917 2.7976C5.99404 1.20828 4.86703 0 3.03283 0ZM0.318463 24H5.67647V7.80631H0.318463V24Z" fill="black"/>
</svg>
